<?xml version="1.0" encoding="utf-8"?>
<!-- Generator: Adobe Illustrator 22.0.1, SVG Export Plug-In . SVG Version: 6.00 Build 0)  -->
<svg version="1.1" id="Layer_1" xmlns="http://www.w3.org/2000/svg" xmlns:xlink="http://www.w3.org/1999/xlink" x="0px" y="0px"
	 viewBox="0 0 48 48" style="enable-background:new 0 0 48 48;" xml:space="preserve">
<style type="text/css">
	.st0{clip-path:url(#SVGID_2_);}
	.st1{clip-path:url(#SVGID_4_);}
	.st2{clip-path:url(#SVGID_6_);}
	.st3{clip-path:url(#SVGID_8_);}
	.st4{clip-path:url(#SVGID_10_);}
	.st5{clip-path:url(#SVGID_12_);}
	.st6{clip-path:url(#SVGID_14_);}
	.st1,.st2,.st3,.st4,.st5,.st6{color:#fff;
	background-color:white;}
</style>
<g>
	<g>
		<path d="M24,48.5c-13.5,0-24.5-11-24.5-24.5S10.5-0.5,24-0.5s24.5,11,24.5,24.5S37.5,48.5,24,48.5z M24,0.5C11,0.5,0.5,11,0.5,24
			S11,47.5,24,47.5S47.5,37,47.5,24S37,0.5,24,0.5z"/>
	</g>
	<g>
		<defs>
			<circle id="SVGID_3_" cx="24" cy="24" r="22.5"/>
		</defs>
		<clipPath id="SVGID_2_">
			<use xlink:href="#SVGID_3_"  style="overflow:visible;"/>
		</clipPath>
		<g id="rYSu1G.tif" class="st0">
			<g>
				<g>
					<path d="M24.2,5.7c0,0.1,0.1,0.2,0.1,0.4c0.1,0.6,0.1,0.6,0.6,0.6c0.3,0,0.6,0,0.9,0c0.4,0,0.5,0.2,0.5,0.5c0,0.2,0,0.4,0,0.7
						c0.2,0,0.4,0,0.6,0.1c0.6,0.2,0.9,0.7,0.9,1.5c0,2.1,0,4.2,0,6.2c0,1,0,1.9,0,2.9c0,0.1,0,0.3-0.1,0.4c-1,1.2-2.1,2.4-3.2,3.6
						c0-0.2,0-0.3,0-0.5c0-4.2,0-8.3,0-12.5c0-0.7,0.1-1.4,0.8-1.8c-0.1,0-0.3,0-0.4,0c-0.3,0-0.5,0.1-0.5,0.4
						c0,0.4-0.1,0.5-0.5,0.5c-0.9,0-1.8,0-2.7,0c-0.3,0-0.5-0.1-0.5-0.5c0-0.4-0.1-0.5-0.5-0.5c-0.2,0-0.4,0-0.6,0
						c0.7,0.4,0.8,1,0.8,1.7c0,5.8,0,11.5,0,17.3c0,0.4-0.1,0.7-0.4,0.9c-0.9,1-1.7,1.9-2.5,2.9c-0.1,0.1-0.2,0.2-0.4,0.4
						c0-0.2,0-0.4,0-0.5c0-7.1,0-14.1,0-21.2c0-0.6,0.2-1.2,0.8-1.5c-0.3,0-0.6,0-0.8,0c-0.1,0-0.2,0.2-0.3,0.3
						c-0.1,0.6-0.1,0.6-0.6,0.6c-0.9,0-1.8,0-2.6,0c-0.3,0-0.4,0-0.5-0.4c-0.1-0.6-0.1-0.6-0.7-0.6c-0.1,0-0.1,0-0.3,0
						c0.2,0.2,0.4,0.3,0.5,0.4c0.2,0.3,0.3,0.7,0.3,1.1c0,5.4,0,10.8,0,16.1c0,3.4,0,6.7,0,10.1c0,0.3-0.1,0.6-0.3,0.8
						c-0.3,0.2-0.5,0.5-0.7,0.8c-1,1.3-0.9,3,0.3,4c0.5,0.4,0.7,0.9,0.7,1.5c0,2.1,0,4.2,0,6.4c-1.1,0-2.2,0-3.3,0
						c0-0.3,0-0.5,0-0.8c0-12.9,0-25.8,0-38.7C9.5,8.5,9.8,8,11,7.9c0-0.2,0-0.5,0-0.7c0-0.3,0.1-0.5,0.4-0.5c0.3,0,0.6,0,0.9,0
						c0.6,0,0.6,0,0.6-0.6C12.9,6,13,5.9,13,5.7c1.2,0,2.3,0,3.5,0c0,0.2,0.1,0.4,0.2,0.6c0.1,0.1,0.2,0.3,0.3,0.3
						c0.5,0.1,1.1,0.1,1.6,0.1c0.5,0,1.1-0.1,1.6-0.1c0.1,0,0.3-0.2,0.3-0.3c0.1-0.2,0.1-0.4,0.2-0.6C21.9,5.7,23,5.7,24.2,5.7z"/>
				</g>
				<g>
					<path d="M24.4,49.1c0-2.8,0-5.7,0-8.5c0-0.1,0-0.3,0.1-0.4c1-1.1,2-2.3,3-3.4c0,0,0.1-0.1,0.2-0.1c0,0.4,0,0.7,0,1
						c0,3.7,0,7.4,0,11.1c0,0.1,0,0.3,0,0.4C26.7,49.1,25.5,49.1,24.4,49.1z"/>
				</g>
				<g>
					<path d="M17,49.1c0-1.2,0-2.4,0-3.7c1.1,0.5,2.2,0.5,3.2-0.3c0,1.4,0,2.6,0,3.9C19.1,49.1,18.1,49.1,17,49.1z"/>
				</g>
				<g>
					<path d="M34.1,22.5c0.4,0.3,0.8,0.7,1.2,1c0.8,0.7,0.9,1.7,0.2,2.5c-4.7,5.4-9.5,10.9-14.2,16.3c-0.5,0.6-1,1.1-1.5,1.7
						c-0.7,0.8-1.7,0.9-2.5,0.2c-1.4-1.2-2.9-2.5-4.3-3.7c-0.9-0.8-1-1.7-0.2-2.7C18,31.9,23.1,25.9,28.3,20c0.8-0.9,1.7-1,2.7-0.2
						c0.4,0.3,0.7,0.6,1.1,1c0.1-0.2,0.3-0.3,0.4-0.5c2.1-2.4,4.2-4.8,6.3-7.2c0.5-0.6,1-0.6,1.6-0.1c1,0.9,1,1.1,0.2,2.1
						c-2.1,2.4-4.1,4.8-6.2,7.1C34.2,22.3,34.2,22.4,34.1,22.5z"/>
				</g>
				<g>
					<path d="M38.9,38.9c0,2.3-1.9,4.2-4.2,4.1c-2.3,0-4.1-1.9-4.1-4.2c0-2.3,1.9-4.1,4.2-4.1C37,34.7,38.9,36.6,38.9,38.9z"/>
				</g>
			</g>
		</g>
	</g>
</g>
</svg>
