<?xml version="1.0" encoding="utf-8"?>
<!-- Generator: Adobe Illustrator 22.0.1, SVG Export Plug-In . SVG Version: 6.00 Build 0)  -->
<svg version="1.1" id="Layer_1" xmlns="http://www.w3.org/2000/svg" xmlns:xlink="http://www.w3.org/1999/xlink" x="0px" y="0px"
	 viewBox="0 0 48 48" style="enable-background:new 0 0 48 48;" xml:space="preserve">
<style type="text/css">
	.st0{clip-path:url(#SVGID_2_);}
	.st1{clip-path:url(#SVGID_4_);}
	.st2{clip-path:url(#SVGID_6_);}
	.st3{clip-path:url(#SVGID_8_);}
	.st4{clip-path:url(#SVGID_10_);}
	.st5{clip-path:url(#SVGID_12_);}
	.st6{clip-path:url(#SVGID_14_);}
</style>
<g>
	<g>
		<path d="M24,48.5c-13.5,0-24.5-11-24.5-24.5S10.5-0.5,24-0.5s24.5,11,24.5,24.5S37.5,48.5,24,48.5z M24,0.5C11,0.5,0.5,11,0.5,24
			S11,47.5,24,47.5S47.5,37,47.5,24S37,0.5,24,0.5z"/>
	</g>
	<g>
		<defs>
			<circle id="SVGID_13_" cx="24" cy="24" r="22.5"/>
		</defs>
		<clipPath id="SVGID_2_">
			<use xlink:href="#SVGID_13_"  style="overflow:visible;"/>
		</clipPath>
		<g id="Cwl1Xj.tif" class="st0">
			<g>
				<g>
					<path d="M25.1,39c0.5,0.8,0.9,1.4,1.4,2.1c-0.9,0.2-1.4,0.3-2.1-0.5c-0.7-0.8-1.8-1.3-2.8-1.9c-0.5,0.8-1.3,0.8-1.6-0.1
						c-0.4-1.1-1.3-1.3-2-1.8c-0.4-0.3-0.8-0.8-1.2-1.2c-0.2-0.2-0.5-0.3-0.7-0.4c-0.8-0.3-1.6-0.5-2.3-0.8c-0.9-0.3-1-0.7-0.4-1.5
						c0.5-0.8,1.1-1.5,1.6-2.2c-1.2-1-2.3-2-3.6-3.1c-2.6,0.8-5.4,1.7-8.2,2.7c-0.1-0.5-0.3-0.8-0.4-1.3c2.7-0.9,5.4-1.8,8.1-2.7
						c0-0.1-0.1-0.2-0.1-0.2c-3,1-6,2-9.1,3c-0.1-0.4-0.3-0.8-0.5-1.3c3.2-1.1,6.4-2.1,9.5-3.2c0-0.1,0-0.1-0.1-0.2
						c-3.3,1.1-6.6,2.2-10,3.3c-0.2-0.5-0.3-0.8-0.5-1.3c2.5-0.8,4.9-1.6,7.2-2.4c0.8-0.3,1.6-0.6,2.4-0.8c1-0.3,1.8-0.7,2.5-1.5
						c1-1.1,2.4-1.4,3.8-1.3c2.5,0.2,5.1,0.4,7.6,0.7c0.2,0,0.4,0,0.7-0.2c-0.8-0.4-1.6-0.8-2.4-1.2c-0.9-0.4-1.5-0.9-1.5-2
						c0-1.1,0.6-1.9,1.6-2.3c1.7-0.7,3.4-1.3,5.1-1.8c1.8-0.6,2-0.5,2.7,1.3c0.1,0.3,0.3,0.7,0.4,1c0.3,1.5,1.1,2.4,2.8,2.2
						c0.4,0,0.8-0.1,1.1-0.3c0.8-0.6,1.5-1.4,2.3-2c0.6-0.4,1.3-0.6,2-0.9c0.4-0.2,0.7-0.4,1.1-0.7c-0.1,1.6,1.3,1.9,2.1,2.8
						c1.1,1.2,2.1,2.7,2.9,4.1c0.4,0.7-0.1,1.4-0.6,1.9c-0.5,0.5-1.1,0.6-1.7,0.3c-1.2-0.5-2.4-1.1-3.7-1.6c-1.7,3.4-3.3,6.8-5,10.2
						c0.7,0.7,1.5,1.4,2.2,2.1c1,0.9,1,1.1,0,2.1c-0.6,0.6-1.3,1.2-1.8,1.9c-1,1.4-2.5,1.5-4.1,1.5c0-0.8,0.1-1.6,1-1.5
						c1.2,0,1.7-0.6,2.3-1.4c0.4-0.5,0.8-1,1.3-1.6c-1.5-0.8-3-1.6-4.5-2.5c-0.2,1.5-0.4,3-0.5,4.4c-0.1,0.4-0.1,0.9-0.1,1.3
						c-0.2,1.3-0.5,1.5-1.9,1.3C26.8,39.3,26.1,39.2,25.1,39z M27.5,37.9c-0.2-1.9-0.4-3.4-0.5-5c0-0.6-0.3-0.8-0.9-1
						c-1.7-0.4-3.5-0.8-5.2-1.1c-1.1-0.2-2.1,0.7-1.9,1.8c0.1,0.6,0.2,1.1,0.4,1.6c0.1,0.3,0.3,0.6,0.6,0.8c0.5,0.3,1.1,0.5,1.2,1.2
						c0,0.2,0.4,0.3,0.7,0.4c0.3,0.1,0.6,0.2,0.8,0.2C24.2,37.2,25.8,37.5,27.5,37.9z M31.4,20c-1.8,0.2-2.7-0.6-2.9-2.2
						c-0.8,0.3-1.5,0.5-2.2,0.8c0.9,0.9,2.5,1,2.3,2.6C29.9,21.9,30.5,21,31.4,20z"/>
				</g>
				<g>
					<path d="M34.6,13.1c0,1.2-1,2.2-2.1,2.3c-1.2,0-2.2-0.9-2.3-2.1c0-1.3,1-2.3,2.2-2.3C33.6,10.9,34.6,11.9,34.6,13.1z"/>
				</g>
			</g>
		</g>
	</g>
</g>
</svg>
