<?xml version="1.0" encoding="utf-8"?>
<!-- Generator: Adobe Illustrator 22.0.1, SVG Export Plug-In . SVG Version: 6.00 Build 0)  -->
<svg version="1.1" id="Layer_1" xmlns="http://www.w3.org/2000/svg" xmlns:xlink="http://www.w3.org/1999/xlink" x="0px" y="0px"
	 viewBox="0 0 48 48" style="enable-background:new 0 0 48 48;" xml:space="preserve">
<style type="text/css">
	.st0{clip-path:url(#SVGID_2_);}
	.st1{clip-path:url(#SVGID_4_);}
	.st2{clip-path:url(#SVGID_6_);}
	.st3{clip-path:url(#SVGID_8_);}
	.st4{clip-path:url(#SVGID_10_);}
	.st5{clip-path:url(#SVGID_12_);}
	.st6{clip-path:url(#SVGID_14_);}
</style>
<g>
	<g>
		<path d="M24,48.5c-13.5,0-24.5-11-24.5-24.5S10.5-0.5,24-0.5s24.5,11,24.5,24.5S37.5,48.5,24,48.5z M24,0.5C11,0.5,0.5,11,0.5,24
			S11,47.5,24,47.5S47.5,37,47.5,24S37,0.5,24,0.5z"/>
	</g>
	<g>
		<defs>
			<circle id="SVGID_1_" cx="24" cy="24" r="22.5"/>
		</defs>
		<clipPath id="SVGID_2_">
			<use xlink:href="#SVGID_1_"  style="overflow:visible;"/>
		</clipPath>
		<g id="_x34_v5nHX.tif" class="st0">
			<g>
				<g>
					<path d="M23.5,2.8c-2.3,6.4-4.7,12.9-7.1,19.4c0.3-0.2,0.4-0.4,0.6-0.5c0.2-0.2,0.4-0.1,0.5,0.2c0.1,0.2,0.1,0.4,0.1,0.6
						c-0.4,4.3,0.9,8.1,3,11.8c0.7,1.3,1.6,2.5,2.4,3.7c0.3,0.4,0.5,0.9,0.6,1.3c0.2,0.7-0.1,1.2-0.8,1.5c-0.1,0.1-0.2,0.1-0.3,0.2
						c-0.8,0.3-0.9,0.3-1.6-0.3c-1.6-1.6-3.2-3.2-4.8-4.8c-0.1-0.1-0.2-0.2-0.3-0.3c0.6-0.2,1.1-0.3,1.8-0.5
						c-0.3-0.3-0.6-0.6-0.9-0.8c-0.1-0.1-0.2,0-0.3,0c-0.4,0.1-0.8,0.2-1.2,0.3c-0.2,0-0.4,0-0.5-0.1c-0.3-0.3-0.7-0.6-1-1
						c1.3-0.3,2.4-0.6,3.6-1c-0.4-0.4-0.7-0.7-1-1c-0.1-0.1-0.2,0-0.3,0c-1,0.2-2,0.5-3,0.7c-0.3,0.1-0.5,0-0.7-0.2
						c-0.3-0.3-0.6-0.6-1-0.9c1.9-0.6,3.7-1.1,5.7-1.7c-0.4-0.4-0.7-0.6-1-0.9c-0.1-0.1-0.3-0.1-0.4,0c-1.7,0.4-3.3,0.9-5,1.3
						c-0.2,0-0.4,0-0.5-0.1c-2.5-2.4-4.9-4.9-7.3-7.3c0,0-0.1-0.1-0.1-0.1c0.1-0.1,0.1-0.2,0.2-0.3c1.7-1.7,3.5-3.5,5.2-5.2
						c0.3-0.3,0.7-0.6,1.1-0.9c0.6-0.4,1.3-0.6,1.9,0.1c0.4-1,0.8-2,1.1-3c1.2-3.3,2.5-6.6,3.7-9.9c0-0.1,0.1-0.2,0.1-0.4
						C18.4,2.8,21,2.8,23.5,2.8z"/>
				</g>
				<g>
					<path d="M16.6,43c0.1-0.3,0.1-0.7,0.2-1c0.1-0.3,0-0.5-0.2-0.8c-0.2-0.2-0.4-0.3-0.8-0.2c-0.3,0.1-0.6,0.1-1,0.2
						c0.1-0.4,0.2-0.8,0.2-1.2c0-0.2-0.1-0.4-0.2-0.5c-0.4-0.6-1-0.9-1.8-0.6c-0.1,0-0.2,0-0.4,0.1c0.1-0.4,0.2-0.8,0.2-1.2
						c0-0.2,0-0.4-0.1-0.5c-2.6-2.6-5.1-5.2-7.7-7.7c-0.1-0.1-0.4-0.2-0.5-0.2c-0.4,0-0.7,0.1-1.1,0.2c0.1-0.4,0.1-0.8,0.2-1.2
						c0.1-0.4-0.5-1-0.9-1c-0.4,0.1-0.8,0.1-1.2,0.2c0.1-0.4,0.2-0.8,0.2-1.2c0-0.2-0.1-0.4-0.2-0.5c-0.3-0.4-0.6-0.7-1-1
						c-0.2-0.2-0.1-0.3,0-0.5c0.4-0.3,0.7-0.7,1.1-1.1c0.2-0.2,0.3-0.2,0.5,0c0.1,0.1,0.3,0.2,0.4,0.3C8.2,29.6,14.1,35.5,20,41.5
						c0,0,0.1,0.1,0.1,0.1c0.5,0.5,0.5,0.6,0,1.1c-0.3,0.3-0.6,0.6-0.9,0.9c-0.2,0.2-0.3,0.2-0.5,0c0,0-0.1,0-0.1,0
						c-0.5-0.7-1.2-0.6-1.8-0.4c-0.1,0-0.1,0-0.2,0C16.7,43.1,16.6,43.1,16.6,43z"/>
				</g>
				<g>
					<path d="M21.4,45.2c0.2,0,0.4-0.1,0.6-0.1c2.4-0.1,4.8-0.5,7.1-1.1c2.5-0.6,4.7-2,6.7-3.5c1.1-0.8,2.1-1.8,3-2.9
						c0.1-0.1,0.3-0.3,0.4-0.4c0,0,0.1,0,0.1,0c0,0.1,0,0.2,0,0.4c-0.2,1.9-1.1,3.4-2.5,4.7c-1,1-2.3,1.6-3.6,2
						c-3.7,1.3-7.5,1.5-11.4,0.9c-0.1,0-0.3-0.1-0.4-0.1C21.4,45.3,21.4,45.2,21.4,45.2z"/>
				</g>
				<g>
					<path d="M42.5,24.9c-0.1,0.4-0.1,0.9-0.3,1.3c-0.9,3.6-3.2,5.8-6.8,6.7c-4.5,1.1-9.3-1.8-10.5-6.3c-1.1-4.1,0.5-8,4.1-10.1
						c4-2.4,9.5-1,11.9,2.9c0.7,1.2,1.2,2.4,1.4,3.8c0,0.1,0.1,0.2,0.1,0.3C42.5,24,42.5,24.5,42.5,24.9z M33.5,21.4
						c-0.8,0.6-1.7,1.2-2.4,1.7c-0.1,0.1-0.2,0.3-0.1,0.4c0.3,0.9,0.6,1.8,0.9,2.7c0,0.1,0.2,0.2,0.3,0.3c0.9,0,1.8,0,2.7,0
						c0.1,0,0.3-0.1,0.4-0.3c0.3-0.9,0.6-1.8,0.9-2.7c0-0.1,0-0.3-0.1-0.4C35.2,22.5,34.4,22,33.5,21.4z M26.5,24.7
						c0.6-0.7,1.1-1.4,1.7-2.1c0-0.1,0.1-0.1,0.1-0.2c-0.1-0.9-0.1-1.8-0.2-2.7c-0.6,0.1-1.2,0.2-1.8,0.3c-0.1,0-0.2,0.1-0.2,0.2
						c-0.5,0.9-0.8,1.9-0.9,2.9c0,0.1,0,0.3,0.1,0.3C25.6,23.9,26,24.3,26.5,24.7z M27.6,27.9c-0.1,0.7-0.2,1.2-0.3,1.8
						c0,0.1,0.1,0.2,0.2,0.3c0.7,0.7,1.5,1.3,2.4,1.7c0.1,0,0.3,0.1,0.3,0.1c0.5-0.2,1-0.5,1.6-0.8c-0.5-0.8-0.9-1.5-1.4-2.2
						c-0.1-0.1-0.2-0.2-0.2-0.2C29.4,28.4,28.5,28.2,27.6,27.9z M40.6,24.7c0.4-0.4,0.8-0.8,1.2-1.2c0.1-0.1,0.1-0.2,0.1-0.4
						c-0.1-1-0.4-2-0.9-3c0-0.1-0.1-0.2-0.2-0.2c-0.6-0.1-1.1-0.2-1.7-0.3c-0.1,1-0.1,1.8-0.2,2.7c0,0.1,0,0.2,0.1,0.2
						C39.4,23.3,40,24,40.6,24.7z M39.4,27.9c-0.9,0.3-1.8,0.5-2.6,0.7c-0.1,0-0.1,0.1-0.2,0.1c-0.5,0.8-1,1.5-1.5,2.3
						c0.5,0.3,1,0.5,1.5,0.7c0.1,0,0.2,0,0.3,0c1-0.4,1.9-1.1,2.6-1.9c0.1-0.1,0.1-0.2,0.1-0.3C39.7,29.1,39.6,28.6,39.4,27.9z
						 M36.2,17.5c-0.3-0.5-0.5-1-0.8-1.4c-0.1-0.1-0.2-0.2-0.3-0.2c-1-0.2-2-0.2-3.1,0c-0.1,0-0.2,0.1-0.3,0.2
						c-0.3,0.5-0.5,1-0.8,1.5c0.9,0.3,1.7,0.7,2.5,1c0.1,0,0.2,0,0.2,0C34.5,18.2,35.3,17.9,36.2,17.5z M38.7,20
						c0.2-0.4,0.1-0.6-0.2-0.8c-0.6-0.4-1.2-0.9-1.8-1.3c-0.3-0.2-0.4-0.2-0.8,0.1C37,18.4,37.9,19.1,38.7,20z M28.2,19.8
						C28.3,19.8,28.3,19.8,28.2,19.8c1-0.7,1.9-1.3,2.8-1.9c-0.2-0.2-0.5-0.2-0.8,0c-0.6,0.4-1.1,0.8-1.7,1.2
						C28.4,19.3,28.4,19.6,28.2,19.8z M39.2,27.7C39.2,27.8,39.2,27.8,39.2,27.7c0.2-0.1,0.5-0.2,0.6-0.4c0.3-0.7,0.5-1.3,0.7-2
						c0.1-0.3,0-0.4-0.2-0.6C39.9,25.7,39.5,26.7,39.2,27.7z M35.1,30.7c-1.1,0-2.1,0-3.2,0c0.3,0.7,1,0.5,1.5,0.5
						C34.1,31.2,34.8,31.4,35.1,30.7z M27.8,27.7c-0.3-1-0.7-2-1-3c-0.5,0.6-0.1,1.2,0.1,1.7C27,27,27.1,27.7,27.8,27.7z M34.9,26.6
						c0,0.1-0.1,0.1-0.1,0.2c0.5,0.7,0.9,1.3,1.4,2c0.3-0.2,0.3-0.4,0.1-0.6c-0.3-0.4-0.6-0.8-0.9-1.2
						C35.3,26.8,35.1,26.7,34.9,26.6z M30.6,23.6c0,0,0.1-0.1,0.1-0.1c-0.1-0.1-0.3-0.3-0.4-0.4c-0.5-0.2-1-0.3-1.5-0.5
						c-0.2-0.1-0.4,0-0.5,0.3C29.1,23.1,29.9,23.4,30.6,23.6z M33.3,18.8c0,0.8,0,1.5,0,2.3c0.1,0,0.3,0,0.4,0c0-0.8,0-1.5,0-2.3
						C33.6,18.8,33.5,18.8,33.3,18.8z M36.4,23.5c0,0,0.1,0.1,0.1,0.1c0.8-0.2,1.5-0.5,2.3-0.7c0-0.1,0-0.1,0-0.2
						c-0.2,0-0.4-0.1-0.5-0.1C37.7,22.9,36.8,22.8,36.4,23.5z M30.8,28.8c0.5-0.7,1-1.3,1.4-2c0,0-0.1-0.1-0.1-0.1
						c-0.8,0.2-0.9,1.1-1.4,1.6C30.5,28.4,30.5,28.6,30.8,28.8z"/>
				</g>
			</g>
		</g>
	</g>
</g>
</svg>
