<?xml version="1.0" encoding="utf-8"?>
<!-- Generator: Adobe Illustrator 22.0.1, SVG Export Plug-In . SVG Version: 6.00 Build 0)  -->
<svg version="1.1" id="Layer_1" xmlns="http://www.w3.org/2000/svg" xmlns:xlink="http://www.w3.org/1999/xlink" x="0px" y="0px"
	 viewBox="0 0 48 48" style="enable-background:new 0 0 48 48;" xml:space="preserve">
<style type="text/css">
	.st0{clip-path:url(#SVGID_2_);}
	.st1{clip-path:url(#SVGID_4_);}
	.st2{clip-path:url(#SVGID_6_);}
	.st3{clip-path:url(#SVGID_8_);}
	.st4{clip-path:url(#SVGID_10_);}
	.st5{clip-path:url(#SVGID_12_);}
	.st6{clip-path:url(#SVGID_14_);}
</style>
<g>
	<g>
		<path d="M24,48.5c-13.5,0-24.5-11-24.5-24.5S10.5-0.5,24-0.5s24.5,11,24.5,24.5S37.5,48.5,24,48.5z M24,0.5C11,0.5,0.5,11,0.5,24
			S11,47.5,24,47.5S47.5,37,47.5,24S37,0.5,24,0.5z"/>
	</g>
	<g>
		<defs>
			<circle id="SVGID_7_" cx="24" cy="24" r="22.5"/>
		</defs>
		<clipPath id="SVGID_2_">
			<use xlink:href="#SVGID_7_"  style="overflow:visible;"/>
		</clipPath>
		<g id="_x32_YkvgX.tif" class="st0">
			<g>
				<g>
					<path d="M14.8,33.2c-1.1-1.1-2.1-2.1-3.2-3.1c0.6-0.9,1.1-1.9,1.4-3c0.4-1.2,0.5-2.5,0.6-3.8c0.1-1.5,0.1-3,0.3-4.5
						c0.2-1.6,0.6-3.1,1.3-4.5c0.9-1.9,2.2-3.5,3.7-4.9c2-1.8,4.3-3,7-3.5c2.4-0.5,4.8-0.3,7.1,0.7c1.8,0.8,3.3,2,4.4,3.7
						c1.5,2.3,2,4.9,1.7,7.6c-0.2,2.1-0.9,4-2.1,5.8c-0.9,1.5-2.1,2.8-3.4,3.9c-1.4,1.2-2.9,2.1-4.6,2.6c-1.3,0.5-2.7,0.7-4.1,0.8
						c-1.6,0.1-3.3,0.2-4.9,0.3c-1.8,0.2-3.5,0.8-5,1.8C14.9,33.2,14.9,33.2,14.8,33.2z M24.9,29.4c0.4,0,0.9,0,1.3-0.1
						c2.4-0.3,4.6-1.3,6.5-2.8c1.2-1,2.2-2.2,3.1-3.5c1.2-2.1,1.9-4.4,1.7-6.8c-0.1-1.9-0.7-3.6-1.8-5.1c-1.5-2-3.5-3.2-6-3.6
						c-1.4-0.2-2.9-0.1-4.3,0.2C23.8,8,22.3,8.7,21,9.7c-1.4,1-2.6,2.2-3.5,3.7c-1,1.5-1.6,3.2-1.9,5c-0.2,1.5-0.1,3.1,0.3,4.6
						c0.5,1.7,1.4,3.1,2.7,4.2C20.4,28.7,22.5,29.4,24.9,29.4z"/>
				</g>
				<g>
					<path d="M10.4,31.7c0.9,0.9,1.8,1.9,2.8,2.8c-0.2,0.2-0.5,0.5-0.7,0.8c-0.7,0.7-1.4,1.4-2.1,2.1c-0.6,0.5-1.1,1.1-1.7,1.6
						c-0.6,0.6-1.2,1.2-1.7,1.8c-0.8,0.8-1.5,1.5-2.3,2.3c-0.4,0.4-0.8,0.8-1.2,1.2c-0.1,0.1-0.2,0.2-0.1,0.4c0.1,0.3,0,0.6-0.3,0.8
						c-0.3,0.2-0.6,0.1-0.8-0.2c-0.9-0.9-1.7-1.7-2.6-2.6c-0.3-0.3-0.4-0.6-0.2-0.9c0.2-0.3,0.5-0.3,0.9-0.2c0.1,0,0.2,0,0.2,0
						c0.8-0.8,1.7-1.7,2.5-2.5c0.8-0.8,1.5-1.5,2.3-2.3C6.3,35.8,7.1,35,8,34.1c0.8-0.8,1.5-1.5,2.3-2.3
						C10.3,31.8,10.3,31.8,10.4,31.7z"/>
				</g>
				<g>
					<path d="M26.5,35.2c1.9,0.3,4.1,2.1,4.5,4.5c-4,0.8-6.3,3.2-7.2,7.2c-1.9-0.3-4.1-2.2-4.5-4.5C23.2,41.6,25.6,39.2,26.5,35.2z"
						/>
				</g>
				<g>
					<path d="M31.1,41.2c0.1,3-2.5,5.8-5.8,5.9C25.4,44.6,28,41.5,31.1,41.2z"/>
				</g>
				<g>
					<path d="M19.1,40.9c0-3.2,2.8-5.9,5.8-5.8C24.8,37.8,22,40.7,19.1,40.9z"/>
				</g>
				<g>
					<path d="M17.8,18.4c-0.3-0.3-0.6-0.6-0.9-0.9c-0.1-0.1-0.2-0.3-0.1-0.4c0.3-0.7,0.6-1.5,0.8-2.2c0.1-0.2,0.2-0.5,0.4-0.7
						c0.2-0.2,0.3-0.5,0.6-0.7c0.4-0.2,0.6-0.6,1-0.9c0.1-0.1,0.2-0.2,0.3-0.3c-0.1-0.1-0.2-0.2-0.3-0.3c0.2-0.2,0.4-0.4,0.7-0.6
						c0.1,0.1,0.2,0.1,0.2,0.2c0,0,0,0,0.1,0.1c0.4-0.4,0.8-0.7,1-1.1c0.6-0.9,1.5-1.1,2.3-1.5c0.4-0.2,0.8-0.3,1.3-0.4
						c0.2-0.1,0.3,0,0.4,0.1c0.3,0.3,0.6,0.6,0.9,0.9c0.5-0.4,0.9-0.9,1.5-1.4c0.3,0,0.7,0,1.1,0.1c0.2,0.1,0.4,0.3,0.6,0.5
						c0.3,0.3,0.6,0.6,0.9,0.8c0.2-0.2,0.3-0.3,0.5-0.5C31.2,9,31.4,8.8,31.6,9c0.2,0.1,0.4,0.2,0.6,0.3c-0.4,0.4-0.7,0.7-1.1,1
						c0.5,0.5,0.9,0.9,1.4,1.3c0.4-0.4,0.8-0.8,1.2-1.2c0.3,0.3,0.5,0.5,0.7,0.7c-0.4,0.4-0.8,0.8-1.2,1.2c0.4,0.5,0.9,0.9,1.3,1.4
						c0.3-0.4,0.6-0.7,0.9-1.1c0.1,0.1,0.1,0.1,0.1,0.1c0.1,0.3,0.4,0.6,0.3,0.8c0,0.2-0.4,0.4-0.6,0.7c0,0-0.1,0.1-0.2,0.2
						c0.3,0.3,0.6,0.6,0.9,0.9c0.4,0.3,0.4,0.7,0.5,1.1c0,0.5-0.1,0.8-0.5,1.1c-0.3,0.3-0.6,0.6-0.9,0.9c0.3,0.3,0.6,0.6,0.9,0.8
						c0.2,0.1,0.2,0.3,0.1,0.5c-0.3,1.1-0.8,2.2-1.5,3.2c-0.2,0.3-0.5,0.5-0.7,0.7c-0.3,0.3-0.6,0.6-0.9,0.8
						c0.1,0.1,0.1,0.1,0.2,0.2c-0.2,0.2-0.4,0.4-0.6,0.7c-0.1-0.1-0.2-0.1-0.3-0.2c-0.4,0.5-0.9,0.9-1.3,1.4
						c-0.1,0.1-0.3,0.2-0.5,0.3c-0.9,0.5-1.9,1-2.9,1.2c-0.2,0-0.3,0-0.4-0.1c-0.3-0.3-0.5-0.6-0.9-0.9c-0.4,0.4-0.7,0.7-1,1.1
						c-0.2,0.2-0.4,0.3-0.8,0.3c-1-0.1-1-0.1-1.6-0.8c-0.2-0.2-0.4-0.4-0.6-0.6c-0.2,0.2-0.4,0.5-0.6,0.7c-0.1,0.1-0.2,0.1-0.2,0.1
						c-0.3-0.1-0.5-0.2-0.8-0.4c0.4-0.3,0.7-0.6,1-0.9c-0.5-0.5-1-0.9-1.4-1.4c-0.4,0.4-0.7,0.8-1.1,1.3c-0.3-0.3-0.5-0.5-0.7-0.8
						c0.4-0.4,0.8-0.8,1.3-1.1c-0.5-0.5-1-0.9-1.4-1.4c-0.3,0.3-0.6,0.6-0.9,1c-0.2-0.3-0.3-0.6-0.4-0.8c0-0.1,0-0.2,0.1-0.2
						c0.2-0.2,0.4-0.4,0.6-0.6c-0.4-0.4-0.8-0.8-1.2-1.2c-0.1-0.1-0.1-0.2-0.2-0.3c0-0.3-0.1-0.7-0.1-1c0-0.1,0-0.2,0.1-0.2
						C16.9,19.3,17.3,18.8,17.8,18.4z M34.5,21.7c0.4-0.4,0.9-0.9,1.3-1.3c-0.4-0.4-0.8-0.9-1.3-1.3c-0.4,0.4-0.9,0.9-1.3,1.3
						C33.7,20.8,34.1,21.3,34.5,21.7z M30.5,17.6c0.5-0.4,0.9-0.8,1.4-1.2c-0.5-0.5-0.9-0.9-1.3-1.3c-0.5,0.4-0.9,0.9-1.4,1.3
						C29.6,16.8,30.1,17.3,30.5,17.6z M17.1,16.3c0.5,0.5,0.9,0.9,1.3,1.3c0.4-0.4,0.9-0.9,1.3-1.3c-0.4-0.4-0.9-0.9-1.3-1.3
						C18,15.5,17.5,15.9,17.1,16.3z M23.2,10.3c0.4,0.5,0.9,0.9,1.3,1.3c0.4-0.4,0.9-0.9,1.3-1.3c-0.4-0.5-0.9-0.9-1.3-1.4
						C24,9.5,23.6,9.9,23.2,10.3z M28.5,13c-0.5,0.5-0.9,0.9-1.3,1.3c0.4,0.4,0.9,0.9,1.3,1.3c0.5-0.5,0.9-0.9,1.3-1.3
						C29.4,13.9,28.9,13.5,28.5,13z M28.5,25.2c-0.4,0.4-0.9,0.9-1.3,1.3c0.4,0.4,0.9,0.9,1.3,1.3c0.4-0.4,0.9-0.9,1.3-1.3
						C29.4,26,28.9,25.6,28.5,25.2z M22.5,21.7c0.4-0.4,0.9-0.9,1.3-1.3c-0.4-0.4-0.9-0.9-1.3-1.3c-0.4,0.4-0.9,0.9-1.3,1.3
						C21.6,20.9,22,21.3,22.5,21.7z M31.8,24.4c-0.5-0.4-0.9-0.9-1.3-1.3c-0.4,0.4-0.9,0.8-1.3,1.3c0.5,0.4,0.9,0.9,1.3,1.3
						C30.9,25.3,31.4,24.9,31.8,24.4z M24.5,23.7c0.4-0.4,0.9-0.9,1.3-1.3c-0.4-0.4-0.9-0.9-1.3-1.3c-0.4,0.4-0.9,0.9-1.3,1.3
						C23.6,22.9,24,23.3,24.5,23.7z M19.2,14.4c0.4,0.4,0.8,0.9,1.3,1.3c0.4-0.4,0.9-0.9,1.3-1.3c-0.4-0.4-0.8-0.9-1.3-1.3
						C20,13.5,19.6,13.9,19.2,14.4z M32.5,19.7c0.5-0.5,0.9-0.9,1.3-1.3c-0.4-0.4-0.9-0.9-1.3-1.3c-0.4,0.4-0.9,0.9-1.3,1.3
						C31.6,18.9,32.1,19.3,32.5,19.7z M24.5,17.1c-0.4,0.4-0.9,0.9-1.3,1.3c0.4,0.4,0.9,0.9,1.3,1.3c0.5-0.5,0.9-0.9,1.3-1.3
						C25.3,18,24.9,17.5,24.5,17.1z M25.2,24.4c0.4,0.4,0.9,0.9,1.3,1.3c0.4-0.4,0.9-0.9,1.3-1.3c-0.4-0.4-0.9-0.9-1.3-1.3
						C26,23.6,25.6,24,25.2,24.4z M28.5,21.1c-0.5,0.4-0.9,0.9-1.3,1.3c0.4,0.4,0.9,0.9,1.3,1.3c0.4-0.4,0.9-0.8,1.3-1.3
						C29.4,22,28.9,21.5,28.5,21.1z M26.5,11c-0.4,0.5-0.9,0.9-1.3,1.3c0.4,0.4,0.8,0.9,1.3,1.4c0.4-0.4,0.9-0.9,1.3-1.3
						C27.4,11.9,26.9,11.5,26.5,11z M27.8,20.4c-0.4-0.4-0.9-0.9-1.3-1.4c-0.4,0.5-0.9,0.9-1.3,1.3c0.4,0.4,0.9,0.9,1.3,1.4
						C26.9,21.3,27.4,20.8,27.8,20.4z M20.5,21.1c-0.4,0.5-0.9,0.9-1.3,1.3c0.4,0.4,0.9,0.9,1.3,1.3c0.4-0.4,0.9-0.9,1.3-1.3
						C21.3,22,20.9,21.5,20.5,21.1z M19.1,18.4c0.4,0.4,0.9,0.9,1.3,1.3c0.4-0.4,0.9-0.9,1.3-1.3c-0.4-0.4-0.9-0.9-1.3-1.3
						C20,17.5,19.6,18,19.1,18.4z M26.5,17.7c0.4-0.4,0.9-0.9,1.3-1.3c-0.5-0.5-0.9-0.9-1.4-1.3c-0.5,0.5-0.9,0.9-1.3,1.3
						C25.6,16.8,26,17.3,26.5,17.7z M27.2,18.4c0.5,0.5,0.9,0.9,1.3,1.3c0.4-0.4,0.9-0.9,1.3-1.3c-0.4-0.4-0.9-0.9-1.3-1.3
						C28.1,17.5,27.6,18,27.2,18.4z M31.8,12.4c-0.4-0.4-0.9-0.9-1.3-1.3c-0.4,0.4-0.9,0.9-1.3,1.3c0.4,0.4,0.9,0.9,1.3,1.3
						C30.9,13.2,31.4,12.8,31.8,12.4z M33.8,22.4c-0.4-0.4-0.9-0.9-1.3-1.3c-0.5,0.5-0.9,0.9-1.3,1.3c0.4,0.4,0.9,0.9,1.3,1.3
						C32.9,23.3,33.4,22.9,33.8,22.4z M21.1,24.4c0.5,0.5,0.9,0.9,1.3,1.3c0.5-0.4,0.9-0.9,1.3-1.3c0,0,0-0.1-0.1-0.1
						c-0.4-0.4-0.8-0.8-1.1-1.2c0,0-0.1,0-0.2,0C22,23.6,21.5,24,21.1,24.4z M23.8,16.4c-0.5-0.4-0.9-0.9-1.3-1.3
						c-0.4,0.4-0.9,0.8-1.3,1.3c0.4,0.4,0.9,0.9,1.3,1.3C22.9,17.2,23.3,16.8,23.8,16.4z M23.7,12.4c-0.4-0.5-0.9-0.9-1.3-1.3
						c-0.5,0.4-0.9,0.9-1.3,1.3c0.4,0.4,0.9,0.9,1.3,1.3C22.9,13.3,23.3,12.8,23.7,12.4z M35.8,16.4c-0.5-0.5-0.9-0.9-1.3-1.4
						c-0.4,0.4-0.9,0.9-1.3,1.3c0.4,0.4,0.9,0.9,1.3,1.3C35,17.3,35.4,16.8,35.8,16.4z M24.5,27.8c0.4-0.5,0.9-0.9,1.3-1.3
						c-0.4-0.4-0.8-0.9-1.3-1.3c-0.5,0.5-0.9,0.9-1.3,1.3C23.6,26.9,24,27.3,24.5,27.8z M31.8,20.5c-0.4-0.5-0.9-0.9-1.3-1.3
						c-0.4,0.4-0.9,0.9-1.3,1.3c0.4,0.4,0.9,0.9,1.3,1.3C30.9,21.3,31.4,20.9,31.8,20.5z M19.7,20.4c-0.4-0.4-0.8-0.9-1.3-1.3
						c-0.5,0.5-0.9,0.9-1.3,1.3c0.4,0.4,0.9,0.9,1.3,1.3C18.9,21.3,19.3,20.9,19.7,20.4z M32.5,13c-0.5,0.5-0.9,0.9-1.3,1.3
						c0.4,0.4,0.9,0.9,1.3,1.3c0.4-0.4,0.9-0.9,1.3-1.3C33.4,13.9,33,13.5,32.5,13z M24.5,15.7c0.5-0.5,0.9-0.9,1.3-1.3
						c-0.4-0.4-0.9-0.9-1.3-1.4c-0.4,0.5-0.9,0.9-1.3,1.3C23.6,14.8,24,15.3,24.5,15.7z M29.8,10.4c-0.5-0.4-0.9-0.9-1.3-1.3
						c-0.4,0.4-0.9,0.8-1.3,1.2c0.4,0.4,0.9,0.9,1.3,1.3C28.9,11.2,29.4,10.8,29.8,10.4z"/>
				</g>
			</g>
		</g>
	</g>
</g>
</svg>
