<?xml version="1.0" encoding="utf-8"?>
<!-- Generator: Adobe Illustrator 22.0.1, SVG Export Plug-In . SVG Version: 6.00 Build 0)  -->
<svg version="1.1" id="Layer_1" xmlns="http://www.w3.org/2000/svg" xmlns:xlink="http://www.w3.org/1999/xlink" x="0px" y="0px"
	 viewBox="0 0 48 48" style="enable-background:new 0 0 48 48;" xml:space="preserve">
<style type="text/css">
	.st0{clip-path:url(#SVGID_2_);}
	.st1{clip-path:url(#SVGID_4_);}
	.st2{clip-path:url(#SVGID_6_);}
	.st3{clip-path:url(#SVGID_8_);}
	.st4{clip-path:url(#SVGID_10_);}
	.st5{clip-path:url(#SVGID_12_);}
	.st6{clip-path:url(#SVGID_14_);}
</style>
<g>
	<g>
		<path d="M24,48.5c-13.5,0-24.5-11-24.5-24.5S10.5-0.5,24-0.5s24.5,11,24.5,24.5S37.5,48.5,24,48.5z M24,0.5C11,0.5,0.5,11,0.5,24
			S11,47.5,24,47.5S47.5,37,47.5,24S37,0.5,24,0.5z"/>
	</g>
	<g>
		<defs>
			<circle id="SVGID_9_" cx="24" cy="24" r="22.5"/>
		</defs>
		<clipPath id="SVGID_2_">
			<use xlink:href="#SVGID_9_"  style="overflow:visible;"/>
		</clipPath>
		<g id="g7NJNK.tif" class="st0">
			<g>
				<g>
					<path d="M1.5,24c0-12.4,10.1-22.5,22.6-22.5c12.4,0,22.5,10.2,22.4,22.7c-0.1,12.4-10.2,22.4-22.6,22.3
						C11.5,46.5,1.5,36.4,1.5,24z M23.9,23.6c1.6,0,3.2,0,4.8,0c0.2,0,0.3-0.1,0.4-0.2c1.5-1.8,2.7-3.7,3.7-5.8
						C33,17.4,33,17.2,33,17c-0.2-1.5-0.8-3-1.5-4.4c-0.9-1.7-2-3.3-3.5-4.5c-0.1-0.1-0.2-0.1-0.3-0.2c-2.1-0.5-4.2-0.5-6.3-0.2
						c-0.8,0.1-1.5,0.5-2.1,1.1c-1.2,1.3-2.2,2.8-3,4.4c-0.6,1.3-1.2,2.7-1.4,4.1c0,0.1,0,0.3,0,0.4c1,2.1,2.2,4.1,3.7,5.9
						c0.1,0.1,0.2,0.2,0.4,0.2C20.7,23.6,22.3,23.6,23.9,23.6z M24.4,40.4c0.5,0,1.4-0.1,2.4-0.2c0.4,0,0.7,0,1.1-0.3
						c1.3-1.1,2.3-2.3,3.2-3.7c0.9-1.5,1.7-3.2,2-5c0.1-0.4,0-0.7-0.1-1c-1-2.1-2.2-4-3.7-5.7c-0.1-0.1-0.2-0.2-0.4-0.2
						c-3.3,0-6.5,0-9.8,0c-0.2,0-0.3,0-0.4,0.2c-1.5,1.8-2.7,3.7-3.7,5.7c-0.2,0.3-0.2,0.7-0.1,1c0.8,3.3,2.5,6.1,5,8.4
						c0.1,0.1,0.2,0.1,0.2,0.2c0,0.2,0.1,0.2,0.2,0.2C21.5,40.3,22.7,40.4,24.4,40.4z M28.7,40.3c0.7,0.9,1.4,1.9,2.1,2.8
						c0,0.1,0.1,0.1,0.2,0.1c0.5,0.1,0.9,0.1,1.4,0.1c0.1,0,0.3,0,0.4-0.1c2.9-1.3,5.4-3.3,7.5-5.8c0.1-0.2,0.2-0.3,0.3-0.5
						c0.5-1.2,0.9-2.5,1.4-3.7c0.1-0.4,0.1-0.7,0-1.1c-0.3-1.2-0.8-2.3-1.5-3.3c-0.1-0.1-0.2-0.3-0.3-0.4c-2,1.1-4,1.9-6.2,2.4
						c-0.2,0-0.2,0.1-0.2,0.3c0,0.3-0.1,0.5-0.1,0.8c-0.6,2.6-1.8,4.9-3.6,6.9C29.6,39.3,29.1,39.8,28.7,40.3z M28.7,7.7
						c0.1,0,0.1,0.1,0.2,0.1c2.6,2.5,4.2,5.5,4.9,9c0,0.2,0.1,0.3,0.3,0.3c1.4,0.2,2.7,0.6,4,1.2c0.7,0.4,1.5,0.8,2.2,1.1
						c0.8-1.1,1.5-2.3,1.9-3.7c0-0.2,0-0.3,0-0.5c-0.4-1.3-0.8-2.5-1.3-3.8c-0.1-0.4-0.3-0.7-0.6-1c-1.9-2.4-4.3-4.2-7.1-5.5
						c-0.4-0.2-0.8-0.3-1.2-0.2c-0.2,0-0.4,0.1-0.6,0.1c-0.4,0-0.7,0.1-0.9,0.5c-0.2,0.3-0.4,0.6-0.6,0.8
						C29.5,6.6,29.1,7.1,28.7,7.7z M19.2,7.6c-0.6-0.9-1.3-1.7-2-2.6c0-0.1-0.1-0.1-0.2-0.1c-0.5-0.1-0.9-0.1-1.4-0.1
						c-0.2,0-0.4,0-0.5,0.1c-2.9,1.4-5.4,3.3-7.5,5.8c-0.1,0.1-0.2,0.3-0.3,0.4c-0.6,1.4-1.1,2.8-1.5,4.3c0,0.2-0.1,0.4,0,0.6
						c0.4,1.3,1.1,2.4,1.8,3.5c0.1,0,0.1,0,0.1-0.1c1.9-1.2,3.9-1.9,6.1-2.3c0.1,0,0.2-0.1,0.2-0.2c0.6-2.6,1.7-5,3.4-7.2
						C18,8.9,18.6,8.3,19.2,7.6z M7.7,28.6c-0.8,1.2-1.4,2.4-1.8,3.8c0,0.2,0,0.4,0,0.5c0.4,1.2,0.8,2.4,1.2,3.6
						c0.1,0.3,0.3,0.6,0.5,0.9c2.1,2.5,4.6,4.5,7.6,5.9c0.1,0,0.2,0.1,0.3,0.1c0.5,0,0.9-0.1,1.4-0.2c0.1,0,0.3-0.1,0.4-0.2
						c0.6-0.7,1.1-1.5,1.7-2.2c0.1-0.2,0.2-0.3,0.4-0.5c-0.1-0.1-0.1-0.1-0.1-0.1c-2.6-2.5-4.4-5.5-5.2-9c0-0.2-0.1-0.2-0.3-0.2
						c-1.3-0.3-2.6-0.7-3.9-1.2C9.2,29.3,8.5,29,7.7,28.6z M42.9,32c0.3-0.3,0.7-0.6,1-0.8c0.1-0.1,0.1-0.1,0.1-0.2
						c1.5-4.5,1.6-9.1,0.1-13.7c-0.2-0.6-0.7-0.8-1.2-1.2c-0.6,1.8-1.1,2.7-2.2,4.1c-0.1,0.1-0.1,0.2-0.1,0.3c0.5,2.4,0.5,4.8,0,7.2
						c0,0.1,0,0.2,0.1,0.3c0.4,0.7,0.8,1.3,1.2,2C42.3,30.5,42.6,31.3,42.9,32z M5,16c-0.3,0.3-0.6,0.5-0.8,0.7
						C4.1,16.8,4,17,4,17.1c-1.6,4.6-1.6,9.2,0,13.8c0,0.1,0,0.2,0.1,0.2c0.3,0.3,0.7,0.6,1.1,0.9c0-0.1,0-0.1,0.1-0.1
						c0.4-1.4,1.1-2.7,1.9-3.8c0-0.1,0.1-0.2,0-0.3c-0.1-0.7-0.3-1.5-0.4-2.2c-0.2-1.8-0.1-3.6,0.4-5.4c0-0.1,0-0.2,0-0.3
						C6.2,18.8,5.5,17.5,5,16z M31.6,43.7c-0.5-0.1-0.9-0.1-1.3,0.1c-1,0.4-2,0.7-3,1c-0.1,0-0.2,0.1-0.3,0.1
						C27.8,44.9,31,44.1,31.6,43.7z M20.9,3.1c-1.1,0.1-4.1,0.9-4.5,1.2c0.5,0.1,0.9,0.1,1.4-0.1c0.6-0.3,1.2-0.5,1.8-0.7
						C20,3.3,20.4,3.2,20.9,3.1z M27.1,3.1c0,0,0.1,0,0.1,0.1c1.1,0.4,2.2,0.7,3.2,1.1c0.4,0.2,0.7,0,1.1,0
						C30.2,3.7,28.7,3.3,27.1,3.1z M16.3,43.7c1.4,0.5,2.8,0.9,4.2,1.1c0,0-0.1-0.1-0.1-0.1c-0.9-0.3-1.8-0.6-2.7-1
						C17.2,43.6,16.8,43.6,16.3,43.7z"/>
				</g>
			</g>
		</g>
	</g>
</g>
</svg>
