<?xml version="1.0" encoding="iso-8859-1"?>
<!-- Generator: Adobe Illustrator 16.0.0, SVG Export Plug-In . SVG Version: 6.00 Build 0)  -->
<!DOCTYPE svg PUBLIC "-//W3C//DTD SVG 1.1//EN" "http://www.w3.org/Graphics/SVG/1.1/DTD/svg11.dtd">
<svg version="1.1" id="Capa_1" xmlns="http://www.w3.org/2000/svg" xmlns:xlink="http://www.w3.org/1999/xlink" x="0px" y="0px"
	 width="186.714px" height="186.714px" viewBox="0 0 186.714 186.714" style="enable-background:new 0 0 186.714 186.714;"
	 xml:space="preserve">
<g>
	<path d="M179.125,103.521c-0.609,3.133-1.479,6.229-4.227,9.062c-1.502,1.566-2.861,2.074-4.209,2.736
		c-1.3,0.744-2.802,1.241-4.326,1.667c-3.015,0.78-6.467,1.135-9.652-0.147c-6.484-2.542-9.238-8.831-9.906-14.322l0.656-0.189
		c2.399,4.871,6.123,9.363,10.557,10.19c2.175,0.438,4.462-0.041,6.685-0.827c1.944-0.816,5.03-2.205,5.964-3.411
		c1.088-1.212,2.11-3.588,2.625-5.846c0.508-2.329,0.732-4.799,0.531-7.276c-0.165-4.915-3.464-9.428-6.466-14.227l-0.124-0.172
		l-0.042-0.109c-2.672-8.594-6.514-16.843-10.888-24.707c-4.409-7.637-8.605-16.05-14.221-21.606l-0.733-0.703l-0.236-1.053
		c-1.135-4.799-1.785-9.483-2.051-14.398c-0.042-3.28-0.03-6.652,0.632-10.102c-3.582,0.659-7.199,1.514-10.675,2.619
		c-5.012,1.782-9.858,4.185-13.688,8.198l-0.557-0.375c2.625-5.146,7.437-8.979,12.496-11.7c5.148-2.84,10.568-4.534,16.42-5.781
		L148.542,0l-1.519,5.361c-0.981,3.511-1.1,8.057-0.716,12.445c0.225,4.211,0.846,8.582,1.478,12.758
		c6.159,7.397,9.398,15.422,12.502,23.611c3.015,8.603,5.739,17.153,8.955,25.608c1.672,2.143,3.387,4.25,5.159,6.333
		c1.951,2.353,3.322,5.175,4.114,8.157C179.35,97.256,179.598,100.395,179.125,103.521z M123.563,85.366
		c-1.514-2.187-3.015-4.74-3.948-6.889l-1.969-4.504l-4.557,2.396c-4.629,2.447-9.186,6.097-11.757,11.029
		c-2.666,4.859-3.665,10.253-3.636,15.307c0.16,10.189,3.305,19.41,7.442,27.887c2.151,4.244,4.568,8.239,7.583,12.117
		c1.52,1.903,2.761,3.334,3.955,5.172c1.164,1.768,2.204,3.646,3.073,5.598c3.393,7.885,3.807,17.295,1.377,25.895l0.881,0.349
		c3.534-8.511,4.392-18.358,1.667-27.627c-1.259-4.622-3.948-9.043-6.591-12.72c-2.341-3.499-4.392-7.477-6.035-11.479
		c-3.298-8.027-5.402-16.775-4.657-24.837c0.591-6.605,3.298-11.934,7.79-15.758c0.898,1.144,1.827,2.27,2.813,3.384
		c2.282,2.305,4.664,4.539,7.442,6.274c5.42,3.618,12.017,5.674,18.246,4.953l0.112-0.957c-5.68-2.033-10.344-5.163-14.121-9.167
		C126.861,89.717,125.047,87.684,123.563,85.366z M90.998,178.694c-3.322-1.052-6.833-2.27-10.524-3.629
		c-3.614-1.543-7.462-2.92-11.245-4.853c-3.833-1.768-7.705-3.76-11.464-6.106c-3.718-2.305-7.524-4.994-10.61-7.974
		c-3.186-2.618-6.576-6.992-9.049-10.196c-2.725-3.652-5.065-7.459-7.214-11.23c-4.111-7.606-6.75-15.314-7.708-22.177
		c-0.966-6.845-0.331-12.731,0.745-16.645c1.09-3.951,2.314-5.938,2.314-5.938l-0.801-0.532c0,0-1.513,1.998-3.062,5.967
		c-1.537,3.966-2.858,10.066-2.565,17.455c0.115,3.694,0.745,7.66,1.658,11.792c1.04,4.132,2.583,8.311,4.406,12.548
		c1.948,4.162,4.141,8.388,6.706,12.473c2.923,4.415,5.151,7.85,8.91,11.75c3.431,3.948,7.202,7.164,11.148,10.185
		c3.928,3.044,8.177,5.474,12.377,7.577c8.547,3.949,17.07,6.082,24.423,6.939c14.75,1.685,24.396-0.633,24.396-0.633l-0.023-0.957
		C113.811,184.511,104.265,182.844,90.998,178.694z M28.063,81.855c-3.626-0.769-6.78,0.89-9.865,1.965
		c-1.2,0.479-2.276,1.147-3.414,1.714c1.726-3.481,3.691-6.856,6.052-10.016c3.449-4.643,7.664-8.76,11.795-12.9
		c8.5-8.057,17.815-15.676,27.68-22.08l5.574-3.632l-6.064-1.463c-4.244-1.049-7.021-0.249-10.205,0.133
		c-0.024,0-0.047,0.018-0.086,0.018c2.344-2.021,4.764-3.922,7.344-5.642c4.968-3.559,10.5-6.15,16.16-8.449
		c11.384-4.158,24.175-5.627,36.212-2.698l0.213-0.63c-12.069-3.747-25.221-3.106-37.406,0.491
		c-6.041,1.959-11.972,4.477-17.333,7.941c-5.474,3.287-10.424,7.365-15.164,11.633l-6.983,6.289l9.339-2.205
		c2.391-0.579,4.873-1.017,7.312-1.368c-7.602,4.936-14.951,10.226-21.456,16.665c-4.395,4.395-8.535,9.091-11.857,14.458
		c-3.39,5.296-6.236,11.089-7.462,17.39l-1.097,5.556l4.25-3.321c2.468-1.93,5.175-3.715,7.82-5.482
		c2.663-1.623,5.512-3.585,8.45-3.694L28.063,81.855z"/>
</g>
<g>
</g>
<g>
</g>
<g>
</g>
<g>
</g>
<g>
</g>
<g>
</g>
<g>
</g>
<g>
</g>
<g>
</g>
<g>
</g>
<g>
</g>
<g>
</g>
<g>
</g>
<g>
</g>
<g>
</g>
</svg>
