<?xml version="1.0" encoding="utf-8"?>
<!-- Generator: Adobe Illustrator 22.0.1, SVG Export Plug-In . SVG Version: 6.00 Build 0)  -->
<svg version="1.1" xmlns="http://www.w3.org/2000/svg" xmlns:xlink="http://www.w3.org/1999/xlink" x="0px" y="0px"
	 viewBox="0 0 783.62 799.24" style="enable-background:new 0 0 783.62 799.24;" xml:space="preserve">
<style type="text/css">
	.st0{clip-path:url(#SVGID_2_);}
	.st1{clip-path:url(#SVGID_4_);fill:url(#SVGID_5_);}
	.st2{clip-path:url(#SVGID_7_);fill:url(#SVGID_8_);}
	.st3{clip-path:url(#SVGID_10_);fill:url(#SVGID_11_);}
	.st4{opacity:0.6;clip-path:url(#SVGID_13_);}
	.st5{clip-path:url(#SVGID_15_);}
	.st6{clip-path:url(#SVGID_17_);fill:url(#SVGID_18_);}
	.st7{clip-path:url(#SVGID_20_);fill:url(#SVGID_21_);}
	.st8{clip-path:url(#SVGID_23_);fill:url(#SVGID_24_);}
	.st9{clip-path:url(#SVGID_26_);fill:url(#SVGID_27_);}
	.st10{clip-path:url(#SVGID_29_);fill:url(#SVGID_30_);}
	.st11{clip-path:url(#SVGID_32_);fill:url(#SVGID_33_);}
	.st12{clip-path:url(#SVGID_35_);fill:url(#SVGID_36_);}
	.st13{clip-path:url(#SVGID_38_);fill:url(#SVGID_39_);}
	.st14{clip-path:url(#SVGID_41_);fill:url(#SVGID_42_);}
	.st15{clip-path:url(#SVGID_44_);fill:url(#SVGID_45_);}
	.st16{clip-path:url(#SVGID_47_);fill:url(#SVGID_48_);}
	.st17{clip-path:url(#SVGID_50_);fill:url(#SVGID_51_);}
	.st18{clip-path:url(#SVGID_53_);fill:url(#SVGID_54_);}
	.st19{clip-path:url(#SVGID_56_);fill:url(#SVGID_57_);}
	.st20{clip-path:url(#SVGID_59_);fill:url(#SVGID_60_);}
	.st21{clip-path:url(#SVGID_62_);fill:url(#SVGID_63_);}
	.st22{clip-path:url(#SVGID_65_);fill:url(#SVGID_66_);}
	.st23{clip-path:url(#SVGID_68_);fill:url(#SVGID_69_);}
	.st24{clip-path:url(#SVGID_71_);fill:url(#SVGID_72_);}
	.st25{clip-path:url(#SVGID_74_);fill:url(#SVGID_75_);}
	.st26{clip-path:url(#SVGID_77_);fill:url(#SVGID_78_);}
</style>
<g id="Layer_2">
	<g>
		<defs>
			<rect id="SVGID_1_" x="0.244" y="-0.135" width="783.62" height="799.24"/>
		</defs>
		<clipPath id="SVGID_2_">
			<use xlink:href="#SVGID_1_"  style="overflow:visible;"/>
		</clipPath>
		<g class="st0">
			<defs>
				<path id="SVGID_3_" d="M392.054-0.135c-216.397,0-391.81,178.909-391.81,399.605c0,220.728,175.413,399.635,391.81,399.635
					c216.403,0,391.809-178.907,391.809-399.635C783.863,178.774,608.457-0.135,392.054-0.135z"/>
			</defs>
			<clipPath id="SVGID_4_">
				<use xlink:href="#SVGID_3_"  style="overflow:visible;"/>
			</clipPath>
			
				<linearGradient id="SVGID_5_" gradientUnits="userSpaceOnUse" x1="3.117558e-04" y1="799.2402" x2="1.0003" y2="799.2402" gradientTransform="matrix(781.8424 0 0 -781.8424 0 625279.3125)">
				<stop  offset="0" style="stop-color:#B07515"/>
				<stop  offset="0.0948" style="stop-color:#E1BB60"/>
				<stop  offset="0.1398" style="stop-color:#F5D77F"/>
				<stop  offset="0.2581" style="stop-color:#FFFFD7"/>
				<stop  offset="0.3602" style="stop-color:#F5D77F"/>
				<stop  offset="0.4892" style="stop-color:#B07515"/>
				<stop  offset="0.5731" style="stop-color:#E1BB60"/>
				<stop  offset="0.6129" style="stop-color:#F5D77F"/>
				<stop  offset="0.7366" style="stop-color:#FFFFD7"/>
				<stop  offset="0.8387" style="stop-color:#F5D77F"/>
				<stop  offset="1" style="stop-color:#B07515"/>
			</linearGradient>
			<rect x="0.244" y="-0.135" class="st1" width="783.619" height="799.24"/>
		</g>
		<g class="st0">
			<defs>
				<path id="SVGID_6_" d="M8.703,399.47c0,215.96,171.628,391.014,383.351,391.014c211.735,0,383.35-175.054,383.35-391.014
					c0-215.942-171.615-390.971-383.35-390.971C180.331,8.499,8.703,183.528,8.703,399.47"/>
			</defs>
			<clipPath id="SVGID_7_">
				<use xlink:href="#SVGID_6_"  style="overflow:visible;"/>
			</clipPath>
			
				<linearGradient id="SVGID_8_" gradientUnits="userSpaceOnUse" x1="3.774171e-04" y1="799.2399" x2="1.0004" y2="799.2399" gradientTransform="matrix(501.3104 -501.3104 -501.3104 -501.3104 400796.6875 401329.375)">
				<stop  offset="0" style="stop-color:#0F1115"/>
				<stop  offset="0.1398" style="stop-color:#1C2228"/>
				<stop  offset="0.2581" style="stop-color:#232A32"/>
				<stop  offset="0.3602" style="stop-color:#1C2228"/>
				<stop  offset="0.4892" style="stop-color:#0F1115"/>
				<stop  offset="0.6129" style="stop-color:#1C2228"/>
				<stop  offset="0.7366" style="stop-color:#232A32"/>
				<stop  offset="0.8387" style="stop-color:#1C2228"/>
				<stop  offset="1" style="stop-color:#0F1115"/>
			</linearGradient>
			<polygon class="st2" points="-382.29,399.492 392.053,-374.851 1166.396,399.492 392.053,1173.835 			"/>
		</g>
		<g class="st0">
			<defs>
				<path id="SVGID_9_" d="M64.226,399.47c0,184.685,146.768,334.378,327.828,334.378S719.882,584.155,719.882,399.47
					c0-184.661-146.768-334.347-327.828-334.347S64.226,214.809,64.226,399.47"/>
			</defs>
			<clipPath id="SVGID_10_">
				<use xlink:href="#SVGID_9_"  style="overflow:visible;"/>
			</clipPath>
			
				<linearGradient id="SVGID_11_" gradientUnits="userSpaceOnUse" x1="4.413399e-04" y1="799.2399" x2="1.0004" y2="799.2399" gradientTransform="matrix(428.7016 -428.7016 -428.7016 -428.7016 342802.8125 343259.4688)">
				<stop  offset="0" style="stop-color:#161A1F"/>
				<stop  offset="0.1398" style="stop-color:#2A323B"/>
				<stop  offset="0.2581" style="stop-color:#343F4A"/>
				<stop  offset="0.3602" style="stop-color:#2A323B"/>
				<stop  offset="0.4892" style="stop-color:#161A1F"/>
				<stop  offset="0.6129" style="stop-color:#2A323B"/>
				<stop  offset="0.7366" style="stop-color:#343F4A"/>
				<stop  offset="0.8387" style="stop-color:#2A323B"/>
				<stop  offset="1" style="stop-color:#161A1F"/>
			</linearGradient>
			<polygon class="st3" points="-270.137,399.486 392.054,-262.704 1054.244,399.486 392.054,1061.676 			"/>
		</g>
		<g class="st0">
			<defs>
				<rect id="SVGID_12_" x="0.244" y="-0.135" width="783.62" height="799.24"/>
			</defs>
			<clipPath id="SVGID_13_">
				<use xlink:href="#SVGID_12_"  style="overflow:visible;"/>
			</clipPath>
			<g class="st4">
				<g>
					<defs>
						<rect id="SVGID_14_" x="146.147" y="65.122" width="573.735" height="570.89"/>
					</defs>
					<clipPath id="SVGID_15_">
						<use xlink:href="#SVGID_14_"  style="overflow:visible;"/>
					</clipPath>
					<g class="st5">
						<defs>
							<path id="SVGID_16_" d="M623.771,636.012c59.374-60.508,96.111-144.147,96.111-236.542
								c0-184.661-146.769-334.348-327.828-334.348c-97.973,0-185.842,43.885-245.907,113.37
								C351.526,270.115,521.363,433.428,623.771,636.012"/>
						</defs>
						<clipPath id="SVGID_17_">
							<use xlink:href="#SVGID_16_"  style="overflow:visible;"/>
						</clipPath>
						
							<radialGradient id="SVGID_18_" cx="2.156073e-04" cy="799.2401" r="1" gradientTransform="matrix(1130.499 0 0 -1153.0242 42.7086 921841.375)" gradientUnits="userSpaceOnUse">
							<stop  offset="0" style="stop-color:#E8E8E8"/>
							<stop  offset="0.0538" style="stop-color:#A6A6A6"/>
							<stop  offset="0.1398" style="stop-color:#606060"/>
							<stop  offset="0.209" style="stop-color:#4C4C4C"/>
							<stop  offset="0.3265" style="stop-color:#303030"/>
							<stop  offset="0.4538" style="stop-color:#1B1B1B"/>
							<stop  offset="0.5943" style="stop-color:#0C0C0C"/>
							<stop  offset="0.7579" style="stop-color:#030303"/>
							<stop  offset="1" style="stop-color:#000000"/>
						</radialGradient>
						<rect x="146.147" y="65.122" class="st6" width="573.735" height="570.89"/>
					</g>
				</g>
			</g>
		</g>
	</g>
</g>
<g id="Layer_1">
	<g>
		<g>
			<g>
				<defs>
					<path id="SVGID_19_" d="M431.589,309.161c-3.843-1.004-7.72-2.177-11.47-3.311l-0.377-0.114
						c0.495-0.102,0.989-0.206,1.482-0.309c3.296-0.69,6.705-1.405,10.055-2c1.417-0.25,2.627,0.436,3.161,1.794
						c0.424,1.078,0.662,2.533-0.618,3.343c-0.61,0.386-1.385,0.632-1.924,0.632C431.783,309.196,431.679,309.184,431.589,309.161
						 M430.928,301.459c-3.379,0.599-6.804,1.316-10.115,2.01c-1.352,0.284-2.711,0.568-4.076,0.848l-1.161,0.237l0.429,1.104
						c0.038,0.1,0.065,0.197,0.091,0.281c0.088,0.302,0.252,0.865,0.851,1.044l2.592,0.782c3.768,1.139,7.665,2.317,11.545,3.331
						c0.265,0.068,0.541,0.1,0.821,0.1c1.088,0,2.233-0.465,2.986-0.941c1.844-1.169,2.372-3.324,1.41-5.766
						c-0.761-1.937-2.497-3.112-4.468-3.112C431.536,301.377,431.234,301.404,430.928,301.459"/>
				</defs>
				<clipPath id="SVGID_20_">
					<use xlink:href="#SVGID_19_"  style="overflow:visible;"/>
				</clipPath>
				
					<linearGradient id="SVGID_21_" gradientUnits="userSpaceOnUse" x1="309.7137" y1="498.522" x2="310.7137" y2="498.522" gradientTransform="matrix(172.3878 172.3878 172.3878 -172.3878 -138998.5312 32759.5664)">
					<stop  offset="0" style="stop-color:#B07515"/>
					<stop  offset="0.0948" style="stop-color:#E1BB60"/>
					<stop  offset="0.1398" style="stop-color:#F5D77F"/>
					<stop  offset="0.2581" style="stop-color:#FFFFD7"/>
					<stop  offset="0.3602" style="stop-color:#F5D77F"/>
					<stop  offset="0.4892" style="stop-color:#B07515"/>
					<stop  offset="0.5731" style="stop-color:#E1BB60"/>
					<stop  offset="0.6129" style="stop-color:#F5D77F"/>
					<stop  offset="0.7366" style="stop-color:#FFFFD7"/>
					<stop  offset="0.8387" style="stop-color:#F5D77F"/>
					<stop  offset="1" style="stop-color:#B07515"/>
				</linearGradient>
				<polygon class="st7" points="426.42,290.533 442.173,306.286 426.42,322.039 410.667,306.286 				"/>
			</g>
			<g>
				<defs>
					<path id="SVGID_22_" d="M412.85,354.652c1.257-2.716,2.483-5.365,3.696-8.02l0.473-1.031c0.87-1.895,1.77-3.856,2.564-5.832
						c0.531-1.321,1.666-1.624,3.337-1.934c3.514-0.652,7.098-1.268,10.565-1.864c4.22-0.725,8.582-1.476,12.862-2.297
						c6.142-1.18,10.32-3.004,12.417-5.42l0.494-0.571l-0.413-0.632c-0.621-0.952-1.247-1.906-1.875-2.862
						c-1.389-2.117-2.786-4.243-4.15-6.391c-5.093-8.017-7.627-16.105-7.747-24.727c-0.012-0.795,0.054-1.266,0.195-1.402
						c0.049-0.048,0.274-0.2,1.115-0.156c0.914,0.044,1.653,0.042,2.254,0.042c0.613,0,1.308-0.002,1.428,0.043
						c0.151,0.231,0.199,1.367,0.249,2.571l0.046,1.073c0.429,9.175,4.734,16.857,8.89,23.162c0.757,1.148,1.539,2.279,2.322,3.409
						c0.464,0.671,0.928,1.342,1.387,2.016c2.473,3.633,2.25,5.798-0.848,8.274c-2.883,2.305-6.051,4.388-9.115,6.404
						c-1.374,0.905-2.749,1.808-4.106,2.736c-0.102,0.07-0.198,0.151-0.333,0.27l-0.836,0.716l12.581,20.722
						c3.138,5.16,6.383,10.494,9.492,15.747c0.075,0.213-0.04,0.838-0.184,1.013c-6.588,7.711-14.917,13.08-24.757,15.956
						c-17.047,4.983-32.4,1.138-45.634-11.428c-7.657-7.271-13.519-16.489-18.451-29.012c-0.924-2.346-1.829-4.699-2.793-7.202
						l-2.289-5.935l-2.215,4.857c-0.814,1.791-1.585,3.487-2.367,5.177c-1.068,2.306-2.098,4.632-3.13,6.956
						c-2.303,5.193-4.683,10.565-7.442,15.594c-5.379,9.809-17.833,14.865-28.967,11.761c-10.811-3.014-17.323-10.095-19.353-21.05
						c-2.037-10.987,2.873-21.801,12.506-27.548c6.178-3.687,13.453-4.624,20.487-2.644c7.096,1.998,13.131,6.885,16.559,13.407
						c0.319,0.606,0.783,1.126,1.343,1.503l2.069,1.396l-0.533-2.439c-3.432-15.685-13.174-24.461-28.963-26.103l0.66-1.436
						c0.874-1.901,1.719-3.739,2.579-5.57c1.103-2.349,2.212-4.697,3.321-7.044c2.259-4.779,4.594-9.72,6.844-14.605
						c0.688-1.492,1.252-2.118,2.964-2.128c11.31-0.07,22.807-0.241,33.925-0.407c3.778-0.057,7.556-0.114,11.333-0.166
						c0.32-0.005,0.642-0.005,0.993-0.005c-0.132,0.308-0.262,0.614-0.391,0.915c-0.655,1.537-1.276,2.994-1.927,4.437l-0.478,1.057
						c-3.987,8.829-8.109,17.957-12.214,26.911c-1.01,2.203-0.76,3.795,0.864,5.495c2.698,2.826,5.348,5.799,7.913,8.674
						c1.423,1.597,2.846,3.193,4.285,4.776c0.167,0.182,0.323,0.361,0.507,0.593l4.421,4.948c0.358,0.379,0.726,0.781,1.103,1.235
						l5.143,5.757l3.036,3.211L412.85,354.652z M443.879,290.229c-0.77,0.745-0.82,1.871-0.807,2.869
						c0.126,9.004,2.763,17.434,8.06,25.772c1.369,2.157,2.772,4.292,4.167,6.416c0.479,0.732,0.959,1.462,1.435,2.19
						c-1.957,1.814-5.572,3.236-10.764,4.234c-4.261,0.818-8.614,1.567-12.823,2.29c-3.473,0.597-7.065,1.214-10.592,1.868
						c-1.624,0.302-3.847,0.714-4.828,3.156c-0.776,1.931-1.665,3.869-2.525,5.742l-0.475,1.035
						c-1.212,2.651-2.436,5.298-3.691,8.011l-1.051,2.272l-6.087-6.751c-0.382-0.46-0.779-0.896-1.148-1.285l-4.358-4.875
						c-0.171-0.22-0.36-0.437-0.562-0.659c-1.435-1.576-2.853-3.168-4.271-4.759c-2.575-2.888-5.237-5.874-7.96-8.726
						c-1.046-1.095-1.156-1.83-0.492-3.278c4.107-8.961,8.231-18.092,12.219-26.924l0.477-1.056
						c0.657-1.455,1.284-2.924,1.945-4.474c0.318-0.746,0.644-1.511,0.985-2.301l0.602-1.396l-2.518-0.002
						c-0.582-0.002-1.06-0.004-1.539,0.003c-3.778,0.053-7.556,0.109-11.335,0.166c-11.114,0.166-22.606,0.338-33.907,0.408
						c-2.707,0.015-3.863,1.326-4.768,3.29c-2.246,4.876-4.579,9.814-6.836,14.588c-1.109,2.349-2.22,4.696-3.324,7.047
						c-0.862,1.836-1.709,3.679-2.585,5.586l-1.857,4.031l1.438,0.108c13.745,1.035,22.601,7.228,26.912,18.882
						c-3.789-5.011-9.163-8.72-15.269-10.439c-7.568-2.132-15.4-1.119-22.053,2.851c-10.361,6.181-15.639,17.811-13.448,29.63
						c2.151,11.603,9.337,19.422,20.782,22.613c12.003,3.344,25.443-2.124,31.258-12.726c2.798-5.103,5.197-10.514,7.516-15.745
						c1.027-2.315,2.054-4.631,3.117-6.927c0.784-1.694,1.556-3.393,2.373-5.189l0.241-0.528l0.576,1.496
						c0.965,2.508,1.872,4.865,2.798,7.217c5.042,12.804,11.06,22.251,18.935,29.729c9.887,9.389,20.913,14.102,32.917,14.102
						c4.736,0,9.626-0.734,14.655-2.204c10.219-2.987,18.872-8.564,25.716-16.577c0.402-0.47,0.678-1.307,0.682-2.092v-0.039
						c-0.003-0.43-0.088-0.842-0.28-1.167c-3.131-5.295-6.38-10.635-9.522-15.8l-11.676-19.232c1.244-0.845,2.503-1.673,3.761-2.502
						c3.103-2.041,6.309-4.15,9.265-6.513c3.902-3.119,4.288-6.5,1.253-10.961c-0.462-0.678-0.929-1.354-1.397-2.028
						c-0.774-1.119-1.548-2.238-2.297-3.373c-4.005-6.078-8.155-13.463-8.561-22.154l-0.046-1.064
						c-0.155-3.731-0.306-4.53-3.647-4.53h-0.031c-0.571,0.001-1.281,0.002-2.154-0.04c-0.117-0.005-0.242-0.009-0.372-0.009
						C445.389,289.506,444.508,289.622,443.879,290.229"/>
				</defs>
				<clipPath id="SVGID_23_">
					<use xlink:href="#SVGID_22_"  style="overflow:visible;"/>
				</clipPath>
				
					<linearGradient id="SVGID_24_" gradientUnits="userSpaceOnUse" x1="309.7137" y1="498.5125" x2="310.7137" y2="498.5125" gradientTransform="matrix(172.3878 172.3878 172.3878 -172.3878 -139034.5312 32795.5664)">
					<stop  offset="0" style="stop-color:#B07515"/>
					<stop  offset="0.0948" style="stop-color:#E1BB60"/>
					<stop  offset="0.1398" style="stop-color:#F5D77F"/>
					<stop  offset="0.2581" style="stop-color:#FFFFD7"/>
					<stop  offset="0.3602" style="stop-color:#F5D77F"/>
					<stop  offset="0.4892" style="stop-color:#B07515"/>
					<stop  offset="0.5731" style="stop-color:#E1BB60"/>
					<stop  offset="0.6129" style="stop-color:#F5D77F"/>
					<stop  offset="0.7366" style="stop-color:#FFFFD7"/>
					<stop  offset="0.8387" style="stop-color:#F5D77F"/>
					<stop  offset="1" style="stop-color:#B07515"/>
				</linearGradient>
				<polygon class="st8" points="389.934,207.627 527.384,345.078 389.934,482.528 252.483,345.078 				"/>
			</g>
			<g>
				<defs>
					<path id="SVGID_25_" d="M439.358,269.028c-0.531-0.584-0.725-1.406-0.529-2.254c0.288-1.261,2.271-3.036,3.171-3.064h0.024
						c0.709,0,1.752,0.939,2.673,1.768c0.371,0.334,0.753,0.677,1.141,0.991l-0.037,0.865c-0.382,0.265-0.753,0.55-1.115,0.827
						c-1.022,0.782-1.986,1.522-2.912,1.644c-0.155,0.021-0.308,0.031-0.457,0.031C440.533,269.836,439.835,269.552,439.358,269.028
						 M441.939,261.711c-2.036,0.062-4.619,2.695-5.06,4.615c-0.344,1.498,0.021,2.973,1.001,4.049
						c0.863,0.946,2.087,1.461,3.434,1.461c0.238,0,0.48-0.015,0.725-0.048c1.454-0.194,2.678-1.133,3.863-2.039
						c0.487-0.373,0.948-0.726,1.41-1.017l0.443-0.28l0.126-2.953l-0.434-0.315c-0.454-0.33-0.92-0.749-1.412-1.192
						c-1.24-1.117-2.512-2.283-3.987-2.283C442.012,261.709,441.975,261.71,441.939,261.711"/>
				</defs>
				<clipPath id="SVGID_26_">
					<use xlink:href="#SVGID_25_"  style="overflow:visible;"/>
				</clipPath>
				
					<linearGradient id="SVGID_27_" gradientUnits="userSpaceOnUse" x1="309.7137" y1="498.5263" x2="310.7137" y2="498.5263" gradientTransform="matrix(172.3878 172.3878 172.3878 -172.3878 -138971.6094 32732.6465)">
					<stop  offset="0" style="stop-color:#B07515"/>
					<stop  offset="0.0948" style="stop-color:#E1BB60"/>
					<stop  offset="0.1398" style="stop-color:#F5D77F"/>
					<stop  offset="0.2581" style="stop-color:#FFFFD7"/>
					<stop  offset="0.3602" style="stop-color:#F5D77F"/>
					<stop  offset="0.4892" style="stop-color:#B07515"/>
					<stop  offset="0.5731" style="stop-color:#E1BB60"/>
					<stop  offset="0.6129" style="stop-color:#F5D77F"/>
					<stop  offset="0.7366" style="stop-color:#FFFFD7"/>
					<stop  offset="0.8387" style="stop-color:#F5D77F"/>
					<stop  offset="1" style="stop-color:#B07515"/>
				</linearGradient>
				<polygon class="st9" points="442.208,256.036 452.945,266.772 442.208,277.509 431.472,266.772 				"/>
			</g>
			<g>
				<defs>
					<path id="SVGID_28_" d="M415.776,261.245c-0.904-0.034-2.836-1.769-3.14-3.042c-0.205-0.859-0.032-1.652,0.49-2.229
						c0.47-0.521,1.17-0.804,1.966-0.804c0.152,0,0.308,0.01,0.466,0.032c0.915,0.121,1.871,0.846,2.882,1.615
						c0.357,0.27,0.724,0.549,1.1,0.807l0.037,0.929c-0.384,0.306-0.762,0.64-1.13,0.966c-0.897,0.797-1.933,1.729-2.609,1.729
						C415.817,261.248,415.796,261.247,415.776,261.245 M411.641,254.635c-0.962,1.064-1.308,2.535-0.951,4.032
						c0.462,1.933,2.975,4.5,5.011,4.577c0.035,0.001,0.07,0.002,0.104,0.002c1.455,0,2.733-1.134,3.97-2.23
						c0.49-0.435,0.954-0.846,1.404-1.169l0.438-0.314l-0.12-3.028l-0.448-0.281c-0.458-0.286-0.915-0.633-1.398-1
						c-1.176-0.893-2.39-1.814-3.83-2.005c-0.25-0.034-0.497-0.05-0.74-0.05C413.722,253.169,412.496,253.685,411.641,254.635"/>
				</defs>
				<clipPath id="SVGID_29_">
					<use xlink:href="#SVGID_28_"  style="overflow:visible;"/>
				</clipPath>
				
					<linearGradient id="SVGID_30_" gradientUnits="userSpaceOnUse" x1="309.7137" y1="498.5242" x2="310.7137" y2="498.5242" gradientTransform="matrix(172.3878 172.3878 172.3878 -172.3878 -138980.0938 32741.1309)">
					<stop  offset="0" style="stop-color:#B07515"/>
					<stop  offset="0.0948" style="stop-color:#E1BB60"/>
					<stop  offset="0.1398" style="stop-color:#F5D77F"/>
					<stop  offset="0.2581" style="stop-color:#FFFFD7"/>
					<stop  offset="0.3602" style="stop-color:#F5D77F"/>
					<stop  offset="0.4892" style="stop-color:#B07515"/>
					<stop  offset="0.5731" style="stop-color:#E1BB60"/>
					<stop  offset="0.6129" style="stop-color:#F5D77F"/>
					<stop  offset="0.7366" style="stop-color:#FFFFD7"/>
					<stop  offset="0.8387" style="stop-color:#F5D77F"/>
					<stop  offset="1" style="stop-color:#B07515"/>
				</linearGradient>
				<polygon class="st10" points="415.975,247.527 426.656,258.207 415.975,268.888 405.295,258.207 				"/>
			</g>
			<g>
				<defs>
					<path id="SVGID_31_" d="M359.225,270.535c-0.26-0.409-0.547-0.813-0.828-1.207c-0.714-1.004-1.524-2.143-1.431-2.851
						c0.128-0.982,2.281-2.783,3.001-2.734c0.974,0.078,2.886,2.046,2.924,3.009c0.027,0.704-0.911,1.762-1.739,2.696
						c-0.327,0.37-0.664,0.748-0.971,1.135L359.225,270.535z M354.983,266.217c-0.196,1.486,0.811,2.901,1.785,4.271
						c0.377,0.53,0.733,1.03,1.005,1.51l0.271,0.48l3.11,0.156l0.319-0.444c0.324-0.455,0.739-0.921,1.176-1.415
						c1.13-1.275,2.299-2.594,2.24-4.101c-0.076-1.959-2.791-4.767-4.763-4.925c-0.052-0.004-0.106-0.007-0.16-0.007
						C358.092,261.742,355.236,264.288,354.983,266.217"/>
				</defs>
				<clipPath id="SVGID_32_">
					<use xlink:href="#SVGID_31_"  style="overflow:visible;"/>
				</clipPath>
				
					<linearGradient id="SVGID_33_" gradientUnits="userSpaceOnUse" x1="309.7137" y1="498.525" x2="310.7137" y2="498.525" gradientTransform="matrix(172.3878 172.3878 172.3878 -172.3878 -139012.7656 32773.8047)">
					<stop  offset="0" style="stop-color:#B07515"/>
					<stop  offset="0.0948" style="stop-color:#E1BB60"/>
					<stop  offset="0.1398" style="stop-color:#F5D77F"/>
					<stop  offset="0.2581" style="stop-color:#FFFFD7"/>
					<stop  offset="0.3602" style="stop-color:#F5D77F"/>
					<stop  offset="0.4892" style="stop-color:#B07515"/>
					<stop  offset="0.5731" style="stop-color:#E1BB60"/>
					<stop  offset="0.6129" style="stop-color:#F5D77F"/>
					<stop  offset="0.7366" style="stop-color:#FFFFD7"/>
					<stop  offset="0.8387" style="stop-color:#F5D77F"/>
					<stop  offset="1" style="stop-color:#B07515"/>
				</linearGradient>
				<polygon class="st11" points="359.868,256.661 370.394,267.188 359.868,277.714 349.341,267.188 				"/>
			</g>
			<g>
				<defs>
					<path id="SVGID_34_" d="M393.948,242.7c2.989-4.447,2.057-10.046-2.216-13.314c-1.793-1.37-1.779-2.261-1.105-3.521
						c2.505-4.68,5.036-9.345,7.777-14.398l2.519-4.647l2.577,4.771c2.607,4.832,5.004,9.272,7.417,13.702
						c1.051,1.929,0.839,2.868-0.947,4.185c-4.254,3.14-5.106,8.881-1.981,13.356c3.589,5.137,10.891,6.607,16.625,3.347
						c4.556-2.589,5.885-6.875,3.843-12.391c-0.402-1.086-0.251-3.015,0.279-3.561c2.305-2.375,4.899-4.601,7.644-6.956
						c0.692-0.594,1.399-1.201,2.123-1.828l0.512,2.84c0.553,3.06,1.043,5.769,1.515,8.48c0.403,2.307,0.181,3.461-2.226,4.645
						c-2.144,1.054-3.563,3.328-3.893,6.237c-0.458,4.025,1.178,8.309,4.067,10.662c4.907,3.993,13.188,3.527,17.041-0.958
						c1.736-2.023,2.732-5.34,2.313-7.715c-0.481-2.735,0.184-4.029,2.538-4.943c1.727-0.67,3.507-1.24,5.569-1.898
						c0.39-0.124,0.79-0.252,1.2-0.384l-17.443,45.294l-97.537,0.042l-17.501-45.357c0.474,0.167,0.937,0.33,1.39,0.489
						c2.563,0.901,4.776,1.678,6.806,2.751c0.553,0.291,1.292,2,1.175,3.034c-0.754,6.62,1.933,10.543,8.215,11.993
						c6.58,1.516,12.872-1.79,14.625-7.7c1.71-5.76-0.177-9.896-5.937-12.97l2.281-14.558l0.11-0.072
						c0.75,0.686,1.502,1.367,2.254,2.049c2.717,2.464,5.527,5.012,8.12,7.644c0.209,0.285,0.212,1.608-0.155,2.512
						c-2.325,5.728-1.047,10.002,3.801,12.706c1.983,1.106,4.18,1.633,6.345,1.634C387.744,247.902,391.694,246.054,393.948,242.7
						 M400.927,202.616l-4.28,7.897c-2.745,5.057-5.277,9.724-7.783,14.408c-1.631,3.048,0.162,4.916,1.653,6.054
						c3.462,2.647,4.19,7.009,1.771,10.609c-2.892,4.303-9.161,5.62-13.97,2.937c-3.931-2.192-4.86-5.436-2.923-10.207
						c0.44-1.083,0.814-3.562-0.264-4.656c-2.642-2.684-5.473-5.251-8.211-7.734c-0.941-0.853-1.882-1.706-2.818-2.566l-0.573-0.526
						l-2.154,1.411l-2.646,16.875l0.658,0.325c5.387,2.666,7.051,5.941,5.565,10.946c-1.448,4.88-6.718,7.601-12.259,6.318
						c-5.253-1.213-7.312-4.24-6.677-9.816c0.187-1.648-0.766-4.259-2.229-5.03c-2.16-1.142-4.438-1.941-7.076-2.868
						c-1.081-0.38-2.219-0.781-3.427-1.231l-2.084-0.781l19.587,50.766l100.282-0.043l19.451-50.508l-2.007,0.665
						c-1.141,0.378-2.193,0.713-3.182,1.029c-2.093,0.669-3.901,1.247-5.684,1.939c-3.264,1.267-4.431,3.473-3.784,7.153
						c0.313,1.784-0.521,4.504-1.862,6.066c-3.141,3.658-10.204,4.009-14.26,0.71c-2.346-1.909-3.72-5.563-3.343-8.886
						c0.147-1.303,0.707-3.643,2.788-4.666c3.437-1.691,3.811-3.935,3.315-6.783c-0.474-2.717-0.963-5.429-1.518-8.494l-1.138-6.317
						l-1.331,1.17c-1.188,1.042-2.331,2.025-3.437,2.974c-2.781,2.385-5.408,4.64-7.776,7.079c-1.26,1.299-1.269,4.165-0.72,5.649
						c1.703,4.602,0.737,7.86-2.955,9.959c-4.846,2.754-10.994,1.543-13.997-2.755c-2.53-3.622-1.887-8.08,1.528-10.601
						c2.598-1.915,3.05-3.934,1.516-6.752c-2.412-4.426-4.806-8.864-7.413-13.694L400.927,202.616z"/>
				</defs>
				<clipPath id="SVGID_35_">
					<use xlink:href="#SVGID_34_"  style="overflow:visible;"/>
				</clipPath>
				
					<linearGradient id="SVGID_36_" gradientUnits="userSpaceOnUse" x1="309.7137" y1="498.5437" x2="310.7137" y2="498.5437" gradientTransform="matrix(172.3878 172.3878 172.3878 -172.3878 -138983.9844 32745.0254)">
					<stop  offset="0" style="stop-color:#B07515"/>
					<stop  offset="0.0948" style="stop-color:#E1BB60"/>
					<stop  offset="0.1398" style="stop-color:#F5D77F"/>
					<stop  offset="0.2581" style="stop-color:#FFFFD7"/>
					<stop  offset="0.3602" style="stop-color:#F5D77F"/>
					<stop  offset="0.4892" style="stop-color:#B07515"/>
					<stop  offset="0.5731" style="stop-color:#E1BB60"/>
					<stop  offset="0.6129" style="stop-color:#F5D77F"/>
					<stop  offset="0.7366" style="stop-color:#FFFFD7"/>
					<stop  offset="0.8387" style="stop-color:#F5D77F"/>
					<stop  offset="1" style="stop-color:#B07515"/>
				</linearGradient>
				<polygon class="st12" points="400.86,132.956 512.086,244.181 400.86,355.407 289.635,244.181 				"/>
			</g>
			<g>
				<defs>
					<path id="SVGID_37_" d="M383.703,260.759c-0.591-0.585-0.831-1.472-0.659-2.436c0.164-0.922,0.919-1.855,1.717-2.843
						c0.281-0.346,0.568-0.701,0.837-1.065l0.91-0.002c0.294,0.399,0.617,0.79,0.933,1.174c0.794,0.96,1.693,2.049,1.645,2.757
						c-0.062,0.895-1.895,2.794-3.154,3.03c-0.182,0.034-0.362,0.05-0.538,0.05C384.739,261.424,384.141,261.193,383.703,260.759
						 M384.547,252.414l-0.297,0.443c-0.302,0.449-0.662,0.895-1.043,1.366c-0.924,1.141-1.879,2.32-2.132,3.751
						c-0.288,1.619,0.156,3.151,1.22,4.206c0.819,0.812,1.912,1.245,3.088,1.245c0.301,0,0.607-0.028,0.916-0.086
						c1.925-0.36,4.642-2.827,4.781-4.857c0.104-1.504-1.014-2.858-2.096-4.169c-0.419-0.508-0.815-0.987-1.124-1.452l-0.297-0.448
						L384.547,252.414z"/>
				</defs>
				<clipPath id="SVGID_38_">
					<use xlink:href="#SVGID_37_"  style="overflow:visible;"/>
				</clipPath>
				
					<linearGradient id="SVGID_39_" gradientUnits="userSpaceOnUse" x1="309.7137" y1="498.5261" x2="310.7137" y2="498.5261" gradientTransform="matrix(172.3878 172.3878 172.3878 -172.3878 -138995.2656 32756.3008)">
					<stop  offset="0" style="stop-color:#B07515"/>
					<stop  offset="0.0948" style="stop-color:#E1BB60"/>
					<stop  offset="0.1398" style="stop-color:#F5D77F"/>
					<stop  offset="0.2581" style="stop-color:#FFFFD7"/>
					<stop  offset="0.3602" style="stop-color:#F5D77F"/>
					<stop  offset="0.4892" style="stop-color:#B07515"/>
					<stop  offset="0.5731" style="stop-color:#E1BB60"/>
					<stop  offset="0.6129" style="stop-color:#F5D77F"/>
					<stop  offset="0.7366" style="stop-color:#FFFFD7"/>
					<stop  offset="0.8387" style="stop-color:#F5D77F"/>
					<stop  offset="1" style="stop-color:#B07515"/>
				</linearGradient>
				<polygon class="st13" points="385.986,247.214 396.69,257.919 385.986,268.623 375.281,257.919 				"/>
			</g>
			<g>
				<defs>
					<path id="SVGID_40_" d="M431.103,302.443c-4.716,0.836-9.396,1.879-14.166,2.853c0.14,0.36,0.175,0.692,0.297,0.729
						c4.69,1.407,9.367,2.866,14.103,4.103c0.897,0.234,2.178-0.186,3.02-0.72c1.722-1.089,1.636-2.975,1.015-4.554
						c-0.606-1.535-1.937-2.478-3.528-2.478C431.603,302.376,431.355,302.398,431.103,302.443"/>
				</defs>
				<clipPath id="SVGID_41_">
					<use xlink:href="#SVGID_40_"  style="overflow:visible;"/>
				</clipPath>
				
					<linearGradient id="SVGID_42_" gradientUnits="userSpaceOnUse" x1="309.987" y1="503.4608" x2="310.987" y2="503.4608" gradientTransform="matrix(18.841 0 0 -18.841 -5423.5225 9792.0645)">
					<stop  offset="0" style="stop-color:#B07515"/>
					<stop  offset="0.0948" style="stop-color:#E1BB60"/>
					<stop  offset="0.1398" style="stop-color:#F5D77F"/>
					<stop  offset="0.2581" style="stop-color:#FFFFD7"/>
					<stop  offset="0.3602" style="stop-color:#F5D77F"/>
					<stop  offset="0.4892" style="stop-color:#B07515"/>
					<stop  offset="0.5731" style="stop-color:#E1BB60"/>
					<stop  offset="0.6129" style="stop-color:#F5D77F"/>
					<stop  offset="0.7366" style="stop-color:#FFFFD7"/>
					<stop  offset="0.8387" style="stop-color:#F5D77F"/>
					<stop  offset="1" style="stop-color:#B07515"/>
				</linearGradient>
				<rect x="416.937" y="302.376" class="st14" width="19.142" height="7.986"/>
			</g>
			<g>
				<defs>
					<path id="SVGID_43_" d="M444.073,293.083c0.129,9.219,3.009,17.546,7.904,25.252c1.982,3.121,4.034,6.2,6.032,9.263
						c-2.382,2.745-7.416,4.242-11.851,5.093c-7.786,1.496-15.625,2.714-23.42,4.161c-1.594,0.294-3.32,0.645-4.083,2.544
						c-0.926,2.305-1.984,4.56-3.018,6.82c-1.744,3.816-3.512,7.619-5.364,11.628c-0.737-0.779-1.411-1.492-2.021-2.138
						l-5.125-5.735c-0.366-0.443-0.748-0.863-1.122-1.257l-4.401-4.926c-0.157-0.201-0.329-0.399-0.514-0.601
						c-4.078-4.483-8.031-9.086-12.214-13.467c-1.42-1.487-1.455-2.692-0.678-4.387c4.268-9.309,8.48-18.642,12.694-27.975
						c0.971-2.149,1.874-4.329,2.923-6.758c-1.083,0-1.803-0.009-2.522,0.001c-15.083,0.211-30.167,0.48-45.251,0.573
						c-2.196,0.013-3.06,0.963-3.866,2.709c-3.334,7.239-6.773,14.429-10.162,21.643c-1.265,2.693-2.496,5.4-3.836,8.301
						c16.368,1.233,26.06,9.777,29.488,25.447c-0.439-0.296-0.78-0.69-1.017-1.139c-7.375-14.033-25.028-19.161-38.443-11.158
						c-9.717,5.798-15.136,16.944-12.977,28.59c2.079,11.219,8.899,18.718,20.069,21.831c11.418,3.183,24.412-1.85,30.112-12.244
						c3.994-7.283,7.104-15.053,10.602-22.61c1.163-2.516,2.304-5.044,3.597-7.878c1.534,3.967,2.861,7.456,4.229,10.927
						c4.331,10.998,10.046,21.16,18.692,29.371c13.299,12.626,28.792,16.869,46.604,11.664c10.021-2.93,18.457-8.332,25.236-16.267
						c0.407-0.477,0.596-1.642,0.301-2.14c-3.94-6.663-7.984-13.265-12.002-19.881c-3.215-5.296-6.428-10.591-9.652-15.902
						c0.224-0.189,0.323-0.291,0.438-0.369c4.445-3.038,9.086-5.832,13.28-9.185c3.653-2.92,3.693-5.735,1.052-9.617
						c-1.23-1.807-2.5-3.589-3.702-5.414c-4.558-6.915-8.327-14.124-8.725-22.658c-0.217-4.647,0.035-4.643-2.731-4.64
						c-0.586,0.001-1.308,0.002-2.197-0.042c-0.112-0.005-0.219-0.008-0.321-0.008C444.316,290.505,444.048,291.352,444.073,293.083
						"/>
				</defs>
				<clipPath id="SVGID_44_">
					<use xlink:href="#SVGID_43_"  style="overflow:visible;"/>
				</clipPath>
				
					<linearGradient id="SVGID_45_" gradientUnits="userSpaceOnUse" x1="309.9985" y1="498.8456" x2="310.9985" y2="498.8456" gradientTransform="matrix(160.0564 0 0 -160.0564 -49306.4844 80189.6094)">
					<stop  offset="0" style="stop-color:#B07515"/>
					<stop  offset="0.0948" style="stop-color:#E1BB60"/>
					<stop  offset="0.1398" style="stop-color:#F5D77F"/>
					<stop  offset="0.2581" style="stop-color:#FFFFD7"/>
					<stop  offset="0.3602" style="stop-color:#F5D77F"/>
					<stop  offset="0.4892" style="stop-color:#B07515"/>
					<stop  offset="0.5731" style="stop-color:#E1BB60"/>
					<stop  offset="0.6129" style="stop-color:#F5D77F"/>
					<stop  offset="0.7366" style="stop-color:#FFFFD7"/>
					<stop  offset="0.8387" style="stop-color:#F5D77F"/>
					<stop  offset="1" style="stop-color:#B07515"/>
				</linearGradient>
				<rect x="309.07" y="290.505" class="st15" width="161.896" height="111.328"/>
			</g>
			<g>
				<defs>
					<path id="SVGID_46_" d="M358.643,271.506c-0.979-1.731-2.875-3.584-2.668-5.16c0.19-1.452,2.728-3.708,4.071-3.6
						c1.471,0.118,3.787,2.499,3.844,3.967c0.062,1.587-2.061,3.26-3.231,4.895C359.988,271.573,359.315,271.54,358.643,271.506
						 M437.854,266.551c0.368-1.604,2.64-3.796,4.116-3.84c1.595-0.048,3.257,2.095,4.889,3.282
						c-0.027,0.63-0.054,1.261-0.081,1.893c-1.617,1.02-3.148,2.681-4.871,2.911c-0.201,0.027-0.398,0.04-0.59,0.039
						C438.952,270.836,437.322,268.866,437.854,266.551 M415.738,262.244c-1.467-0.055-3.694-2.215-4.075-3.81
						c-0.608-2.544,1.355-4.578,4.027-4.224c1.706,0.226,3.226,1.86,4.829,2.863c0.026,0.653,0.052,1.307,0.078,1.962
						c-1.601,1.145-3.236,3.21-4.794,3.21C415.781,262.245,415.76,262.245,415.738,262.244 M382.059,258.148
						c0.303-1.704,1.968-3.164,3.022-4.734c0.648-0.001,1.297-0.001,1.945-0.001c1.112,1.673,3.168,3.411,3.058,5.001
						c-0.102,1.464-2.365,3.642-3.968,3.942c-0.25,0.046-0.494,0.069-0.731,0.069C383.224,262.425,381.629,260.567,382.059,258.148
						 M389.746,225.393c-1.059,1.979-0.512,3.342,1.378,4.789c3.957,3.024,4.624,8.047,1.994,11.96
						c-3.182,4.734-10.023,6.19-15.288,3.253c-4.439-2.477-5.467-6.27-3.361-11.458c0.427-1.052,0.569-2.949-0.05-3.578
						c-3.514-3.57-7.3-6.872-10.993-10.265c-0.377,0.247-0.755,0.494-1.132,0.743c-0.831,5.302-1.662,10.604-2.462,15.71
						c5.938,2.94,7.687,6.711,6.079,12.125c-1.589,5.353-7.428,8.398-13.443,7.009c-5.852-1.351-8.128-4.914-7.446-10.903
						c0.15-1.311-0.674-3.49-1.701-4.033c-2.976-1.572-6.283-2.513-10.387-4.047c6.471,16.769,18.539,48.049,18.539,48.049
						l98.91-0.043c0,0,12.093-31.401,18.445-47.894c-3.538,1.171-6.224,1.942-8.82,2.95c-2.728,1.06-3.74,2.752-3.161,6.049
						c0.378,2.149-0.621,5.182-2.087,6.89c-3.646,4.245-11.3,4.374-15.65,0.834c-4.736-3.855-5.188-12.854-0.365-15.225
						c2.953-1.452,3.216-3.166,2.771-5.714c-0.695-3.987-1.426-7.965-2.342-13.061c-4.216,3.705-7.9,6.644-11.155,9.999
						c-0.871,0.896-0.995,3.268-0.5,4.605c1.836,4.96,0.844,8.762-3.399,11.175c-5.31,3.019-12.003,1.684-15.311-3.052
						c-2.739-3.92-2.204-9.055,1.755-11.978c2.318-1.711,2.443-3.245,1.231-5.468c-3.438-6.31-6.84-12.64-10.869-20.097
						C396.811,212.316,393.253,218.842,389.746,225.393"/>
				</defs>
				<clipPath id="SVGID_47_">
					<use xlink:href="#SVGID_46_"  style="overflow:visible;"/>
				</clipPath>
				
					<linearGradient id="SVGID_48_" gradientUnits="userSpaceOnUse" x1="309.9982" y1="498.9644" x2="310.9982" y2="498.9644" gradientTransform="matrix(135.8937 0 0 -135.8937 -41793.8789 68050.875)">
					<stop  offset="0" style="stop-color:#B07515"/>
					<stop  offset="0.0948" style="stop-color:#E1BB60"/>
					<stop  offset="0.1398" style="stop-color:#F5D77F"/>
					<stop  offset="0.2581" style="stop-color:#FFFFD7"/>
					<stop  offset="0.3602" style="stop-color:#F5D77F"/>
					<stop  offset="0.4892" style="stop-color:#B07515"/>
					<stop  offset="0.5731" style="stop-color:#E1BB60"/>
					<stop  offset="0.6129" style="stop-color:#F5D77F"/>
					<stop  offset="0.7366" style="stop-color:#FFFFD7"/>
					<stop  offset="0.8387" style="stop-color:#F5D77F"/>
					<stop  offset="1" style="stop-color:#B07515"/>
				</linearGradient>
				<rect x="332.934" y="204.717" class="st16" width="135.894" height="80.03"/>
			</g>
		</g>
		<g>
			<g>
				<defs>
					<path id="SVGID_49_" d="M142.513,559.451c1.902-1.901,2.919-4.222,3.023-6.936l-0.001-77.739
						c-0.104-2.681-1.124-4.982-3.032-6.838c-1.03-1.002-2.183-1.737-3.445-2.204h39.653c-1.262,0.467-2.413,1.202-3.442,2.204
						c-1.91,1.856-2.931,4.158-3.034,6.877v77.7c0,2.697,0.998,5.033,2.962,6.945c1.065,1.038,2.248,1.798,3.538,2.275H139.02
						C140.302,561.257,141.471,560.494,142.513,559.451 M132.756,463.735v3.4h2.82c2.174,0,3.984,0.732,5.532,2.236
						c1.55,1.508,2.344,3.301,2.428,5.444l0.001,77.66c-0.085,2.187-0.883,4.006-2.438,5.562c-1.546,1.547-3.353,2.297-5.523,2.297
						h-2.82v3.401h52.26v-3.401h-2.82c-2.178,0-4.012-0.754-5.603-2.306c-1.586-1.544-2.358-3.347-2.358-5.513v-77.662
						c0.083-2.181,0.877-3.974,2.428-5.482c1.547-1.504,3.356-2.236,5.533-2.236h2.82v-3.4H132.756z M222.537,576.462
						c-4.241-4.423-8.686-9.851-13.21-16.132l-30.375-42.11l33.044-45.072c0.78-1.116,1.16-2.128,1.16-3.093
						c0-0.902-0.178-1.711-0.514-2.383c-0.312-0.668-0.842-1.405-1.741-1.938h22.78c-3.956,1.052-7.39,3.216-10.256,6.484
						l-24.428,29.57l32.504,45.706c10.181,14.294,19.085,24.353,26.464,29.901c7.249,5.447,15.712,8.645,25.164,9.512l0.015,0.084
						c-8.831,4.887-17.449,7.364-25.628,7.364C245.722,594.355,233.954,588.334,222.537,576.462 M205.417,463.735v3.259h2.399
						c2.064,0,2.708,0.87,3.026,1.549c0.208,0.416,0.314,0.925,0.314,1.512c0,0.533-0.269,1.188-0.787,1.929l-33.889,46.227
						l31.224,43.288c4.58,6.356,9.084,11.856,13.391,16.349c11.809,12.28,24.063,18.507,36.421,18.507
						c8.719,0,17.882-2.682,27.232-7.969l0.619-0.351l-0.545-2.998l-0.769-0.059c-9.377-0.73-17.75-3.82-24.887-9.183
						c-7.214-5.423-15.974-15.335-26.036-29.459l-31.615-44.456l23.432-28.366c3.797-4.326,8.726-6.52,14.649-6.52h1.56v-3.259
						H205.417z"/>
				</defs>
				<clipPath id="SVGID_50_">
					<use xlink:href="#SVGID_49_"  style="overflow:visible;"/>
				</clipPath>
				
					<linearGradient id="SVGID_51_" gradientUnits="userSpaceOnUse" x1="132.0679" y1="476.0166" x2="133.0679" y2="476.0166" gradientTransform="matrix(524 168 168 -524 -149047.1875 227749.0781)">
					<stop  offset="0" style="stop-color:#B07515"/>
					<stop  offset="0.0948" style="stop-color:#E1BB60"/>
					<stop  offset="0.1398" style="stop-color:#F5D77F"/>
					<stop  offset="0.2581" style="stop-color:#FFFFD7"/>
					<stop  offset="0.3602" style="stop-color:#F5D77F"/>
					<stop  offset="0.4892" style="stop-color:#B07515"/>
					<stop  offset="0.5731" style="stop-color:#E1BB60"/>
					<stop  offset="0.6129" style="stop-color:#F5D77F"/>
					<stop  offset="0.7366" style="stop-color:#FFFFD7"/>
					<stop  offset="0.8387" style="stop-color:#F5D77F"/>
					<stop  offset="1" style="stop-color:#B07515"/>
				</linearGradient>
				<polygon class="st17" points="146.981,419.367 323.923,476.096 271.142,640.723 94.2,583.993 				"/>
			</g>
			<g>
				<defs>
					<path id="SVGID_52_" d="M245.567,490.195c-3.628-2.158-5.392-5.265-5.392-9.501c0-4.02,1.533-7.274,4.687-9.947
						c3.171-2.685,8.289-4.183,15.263-4.456c0.996-0.089,4.297-0.23,9.813-0.418c5.491-0.183,10.316-0.324,14.365-0.419
						c8.766-0.424,15.974-1.017,21.518-1.768c-2.934,1.291-4.939,3.305-5.985,6.024c-0.687,1.866-1.085,4.232-1.181,7.065v75.74
						c0,2.697,0.996,5.033,2.962,6.945c1.063,1.038,2.247,1.798,3.538,2.275H265.44c1.283-0.478,2.45-1.241,3.492-2.284
						c1.901-1.899,2.918-4.221,3.023-6.936V470.7l-13.216,0.456c-8.381,0.299-12.943,3.521-13.559,9.577l-0.005,0.942
						c0,2.899,1.007,5.27,2.992,7.045c1.711,1.531,3.83,2.403,6.314,2.594c-1.106,0.367-2.199,0.553-3.29,0.553
						C249.327,491.867,247.469,491.322,245.567,490.195 M310.248,460.953c-5.806,1.106-14.568,1.947-26.017,2.502
						c-4.031,0.095-8.862,0.236-14.36,0.42c-5.631,0.191-8.877,0.329-9.875,0.42c-7.38,0.287-12.907,1.945-16.427,4.927
						c-3.58,3.032-5.394,6.893-5.394,11.472c0,4.931,2.143,8.707,6.371,11.221c4.377,2.592,8.767,2.557,13.168,0.158l0.521-0.284
						v-2.434h-2.68c-2.478,0-4.458-0.696-6.054-2.125c-1.565-1.4-2.326-3.217-2.326-5.555v-0.789
						c0.525-4.941,4.332-7.471,11.634-7.732l11.147-0.384l0.001,79.705c-0.086,2.188-0.884,4.007-2.44,5.562
						c-1.544,1.547-3.35,2.297-5.522,2.297h-2.82v3.401h52.26v-3.401h-2.82c-2.179,0-4.011-0.754-5.603-2.306
						c-1.586-1.544-2.357-3.347-2.357-5.513l-0.001-75.706c0.089-2.585,0.445-4.741,1.054-6.395
						c1.274-3.312,4.272-5.305,9.166-6.093l1.026-0.164l-0.679-3.39L310.248,460.953z"/>
				</defs>
				<clipPath id="SVGID_53_">
					<use xlink:href="#SVGID_52_"  style="overflow:visible;"/>
				</clipPath>
				
					<linearGradient id="SVGID_54_" gradientUnits="userSpaceOnUse" x1="132.0679" y1="476.0269" x2="133.0679" y2="476.0269" gradientTransform="matrix(524 168 168 -524 -149037.5938 227719.1719)">
					<stop  offset="0" style="stop-color:#B07515"/>
					<stop  offset="0.0948" style="stop-color:#E1BB60"/>
					<stop  offset="0.1398" style="stop-color:#F5D77F"/>
					<stop  offset="0.2581" style="stop-color:#FFFFD7"/>
					<stop  offset="0.3602" style="stop-color:#F5D77F"/>
					<stop  offset="0.4892" style="stop-color:#B07515"/>
					<stop  offset="0.5731" style="stop-color:#E1BB60"/>
					<stop  offset="0.6129" style="stop-color:#F5D77F"/>
					<stop  offset="0.7366" style="stop-color:#FFFFD7"/>
					<stop  offset="0.8387" style="stop-color:#F5D77F"/>
					<stop  offset="1" style="stop-color:#B07515"/>
				</linearGradient>
				<polygon class="st18" points="245.047,439.333 341.836,470.365 305.028,585.169 208.24,554.137 				"/>
			</g>
			<g>
				<defs>
					<path id="SVGID_55_" d="M299.093,446.135c3.877,0,7.882,0.756,11.903,2.247c4.069,1.51,7.656,3.244,10.645,5.147
						c5.7,3.772,10.827,7.966,15.233,12.461l59.259,61.276l-0.001-52.63c-0.104-2.68-1.101-4.957-2.962-6.769
						c-0.994-0.965-2.1-1.677-3.308-2.133h39.242c-1.207,0.456-2.314,1.168-3.309,2.133c-1.863,1.814-2.859,4.043-2.962,6.668
						v80.338l2.791,2.947c4.352,4.632,6.981,7.379,7.813,8.162c0.802,0.757,2.433,2.245,4.845,4.424
						c2.5,2.258,4.475,3.808,6.04,4.738c1.475,0.876,3.498,2.027,6.186,3.515c2.697,1.493,5.206,2.45,7.4,2.831
						c2.489,0.574,5.156,0.865,7.925,0.865c2.19,0,4.346-0.242,6.433-0.718c-5.115,2.866-10.662,4.318-16.513,4.318
						c-5.589,0-11.502-1.701-17.587-5.061c-6.32-3.39-12.597-8.275-18.654-14.514l-63.179-65.338v51.752
						c0,2.698,0.95,4.989,2.822,6.808c0.994,0.965,2.098,1.677,3.307,2.133h-39.099c1.209-0.456,2.314-1.168,3.307-2.133
						c1.873-1.819,2.822-4.11,2.822-6.808v-79.635l-0.271-0.288c-14.5-15.444-27.463-23.276-38.529-23.276
						c-2.151,0-4.27,0.288-6.323,0.859C288.951,447.587,293.896,446.135,299.093,446.135 M299.093,444.135
						c-6.247,0-12.142,1.946-17.521,5.786l-0.727,0.519l1.55,2.79l0.804-0.298c2.4-0.887,4.921-1.337,7.493-1.337
						c10.424,0,22.805,7.522,36.801,22.356v78.843c0,2.167-0.726,3.925-2.217,5.374c-1.499,1.457-3.24,2.166-5.324,2.166h-3.659
						v3.401h53.24v-3.401h-3.661c-2.082,0-3.823-0.709-5.322-2.166c-1.492-1.449-2.217-3.207-2.217-5.374v-46.806l59.743,61.783
						c6.202,6.389,12.642,11.398,19.133,14.879c6.375,3.521,12.613,5.304,18.544,5.304c6.784,0,13.179-1.84,19.008-5.471l0.71-0.442
						l-1.207-3.025l-0.874,0.26c-2.419,0.715-4.962,1.079-7.557,1.079c-2.618,0-5.133-0.275-7.529-0.826
						c-2.028-0.352-4.325-1.233-6.827-2.619c-2.67-1.48-4.676-2.619-6.133-3.485c-1.429-0.85-3.354-2.364-5.721-4.503
						c-2.402-2.17-4.022-3.649-4.815-4.396c-0.551-0.519-2.339-2.342-7.73-8.079l-2.245-2.37l-0.001-79.504
						c0.082-2.083,0.854-3.808,2.357-5.271c1.501-1.458,3.243-2.167,5.324-2.167h3.52v-3.4h-53.24v3.4h3.66
						c2.081,0,3.823,0.709,5.323,2.166c1.501,1.462,2.272,3.233,2.357,5.374v47.647l-55.826-57.728
						c-4.509-4.601-9.744-8.885-15.577-12.743c-3.123-1.987-6.838-3.785-11.04-5.344
						C307.447,444.933,303.209,444.135,299.093,444.135z"/>
				</defs>
				<clipPath id="SVGID_56_">
					<use xlink:href="#SVGID_55_"  style="overflow:visible;"/>
				</clipPath>
				
					<linearGradient id="SVGID_57_" gradientUnits="userSpaceOnUse" x1="132.0679" y1="476.0297" x2="133.0679" y2="476.0297" gradientTransform="matrix(524 168 168 -524 -149029.5469 227694.0781)">
					<stop  offset="0" style="stop-color:#B07515"/>
					<stop  offset="0.0948" style="stop-color:#E1BB60"/>
					<stop  offset="0.1398" style="stop-color:#F5D77F"/>
					<stop  offset="0.2581" style="stop-color:#FFFFD7"/>
					<stop  offset="0.3602" style="stop-color:#F5D77F"/>
					<stop  offset="0.4892" style="stop-color:#B07515"/>
					<stop  offset="0.5731" style="stop-color:#E1BB60"/>
					<stop  offset="0.6129" style="stop-color:#F5D77F"/>
					<stop  offset="0.7366" style="stop-color:#FFFFD7"/>
					<stop  offset="0.8387" style="stop-color:#F5D77F"/>
					<stop  offset="1" style="stop-color:#B07515"/>
				</linearGradient>
				<polygon class="st19" points="298.986,387.552 517.283,457.54 457.33,644.537 239.033,574.548 				"/>
			</g>
			<g>
				<defs>
					<path id="SVGID_58_" d="M456.192,549.865c-10.682-9.136-16.099-21.339-16.099-36.27c0-14.922,5.531-27.075,16.438-36.121
						c10.964-9.09,25.634-13.699,43.601-13.699c10.421,0,20.713,1.076,30.596,3.198c4.061,0.848,7.449,1.778,10.088,2.773
						l-1.243,23.867c-2.447-7.953-6.833-14.056-13.061-18.163c-6.715-4.429-14.93-6.675-24.419-6.675
						c-9.624,0-17.666,4.281-23.904,12.726c-6.169,8.348-9.296,19.476-9.296,33.074c0,8.585,1.342,16.293,3.991,22.911
						c2.669,6.678,6.55,11.935,11.533,15.623c5.004,3.705,10.645,5.585,16.766,5.585c6.132,0,11.054-1.463,14.628-4.352
						c3.637-2.938,5.48-6.851,5.48-11.627l-0.001-18.995c0.106-2.362-0.595-4.23-2.083-5.553c-0.641-0.569-1.399-1.015-2.269-1.332
						H552.2c-0.847,0.321-1.583,0.769-2.205,1.344c-1.435,1.324-2.11,3.189-2.003,5.496v22.68c0,5.519,1.108,11.062,3.295,16.481
						c4.948,11.99,12.977,19.814,23.876,23.256c3.164,0.957,6.37,1.442,9.529,1.442c2.195,0,4.392-0.165,6.561-0.494
						c-7.357,2.903-14.403,4.374-20.981,4.374c-2.191,0-4.41-0.139-6.561-0.407c-9.117-1.459-17.108-4.922-23.75-10.289
						c-6.649-5.375-11.683-12.165-14.963-20.182l-0.347-0.848l-0.875,0.271c-7.985,2.479-16.506,3.736-25.324,3.736
						C481.141,563.695,466.922,559.041,456.192,549.865 M455.255,475.935c-11.388,9.443-17.162,22.114-17.162,37.66
						c0,15.542,5.652,28.256,16.799,37.789c11.102,9.497,25.758,14.311,43.56,14.311c8.701,0,17.122-1.197,25.047-3.561
						c3.414,7.967,8.525,14.74,15.205,20.138c6.918,5.591,15.224,9.195,24.724,10.714c2.268,0.285,4.571,0.429,6.844,0.429
						c7.572,0,15.713-1.866,24.198-5.542l0.742-0.323l-0.639-3.188l-0.994,0.216c-5.8,1.263-11.874,1.404-17.825-0.396
						c-10.297-3.252-17.906-10.691-22.614-22.102c-2.089-5.173-3.148-10.463-3.148-15.725l-0.001-22.725
						c-0.081-1.761,0.364-3.062,1.361-3.981c1.014-0.939,2.528-1.414,4.5-1.414h3.24v-3.401h-49.04v3.401h3.1
						c2.071,0,3.66,0.48,4.726,1.427c1.031,0.916,1.494,2.214,1.414,4.013v19.04c0,4.201-1.55,7.495-4.738,10.073
						c-3.208,2.592-7.708,3.907-13.371,3.907c-5.683,0-10.923-1.747-15.576-5.193c-4.681-3.464-8.336-8.43-10.866-14.758
						c-2.554-6.382-3.848-13.841-3.848-22.169c0-13.161,2.995-23.889,8.904-31.886c5.84-7.905,13.342-11.915,22.296-11.915
						c9.09,0,16.936,2.135,23.318,6.345c6.335,4.178,10.646,10.598,12.812,19.082l0.193,0.754h2.985l1.488-28.544l-0.664-0.265
						c-2.835-1.133-6.564-2.187-11.083-3.129c-10.014-2.152-20.448-3.243-31.01-3.243
						C481.686,461.774,466.587,466.538,455.255,475.935"/>
				</defs>
				<clipPath id="SVGID_59_">
					<use xlink:href="#SVGID_58_"  style="overflow:visible;"/>
				</clipPath>
				
					<linearGradient id="SVGID_60_" gradientUnits="userSpaceOnUse" x1="132.0679" y1="476.0182" x2="133.0679" y2="476.0182" gradientTransform="matrix(524 168 168 -524 -149018.0625 227658.25)">
					<stop  offset="0" style="stop-color:#B07515"/>
					<stop  offset="0.0948" style="stop-color:#E1BB60"/>
					<stop  offset="0.1398" style="stop-color:#F5D77F"/>
					<stop  offset="0.2581" style="stop-color:#FFFFD7"/>
					<stop  offset="0.3602" style="stop-color:#F5D77F"/>
					<stop  offset="0.4892" style="stop-color:#B07515"/>
					<stop  offset="0.5731" style="stop-color:#E1BB60"/>
					<stop  offset="0.6129" style="stop-color:#F5D77F"/>
					<stop  offset="0.7366" style="stop-color:#FFFFD7"/>
					<stop  offset="0.8387" style="stop-color:#F5D77F"/>
					<stop  offset="1" style="stop-color:#B07515"/>
				</linearGradient>
				<polygon class="st20" points="452.738,416.095 633.484,474.044 580.567,639.094 399.822,581.145 				"/>
			</g>
			<g>
				<defs>
					<path id="SVGID_61_" d="M614.233,567.702c3.996-1.853,6.969-4.388,8.839-7.538c1.857-3.131,2.799-6.457,2.799-9.889
						c0-3.453-1.236-7.011-3.675-10.576c-2.412-3.519-6.013-6.615-10.677-9.186l-22.82-13.44
						c-11.193-6.587-16.868-15.153-16.868-25.458c0-9.242,3.261-16.468,9.697-21.473c5.396-4.225,12.865-6.367,22.203-6.367
						c6.089,0,13.97,0.469,23.521,1.401h9.783l-2.431,18.864c-0.655-4.109-2.723-7.561-6.173-10.289
						c-4.178-3.302-9.567-4.976-16.02-4.976c-6.416,0-11.448,1.135-14.958,3.376c-3.623,2.317-5.613,5.448-5.915,9.269
						c-0.314,2.725,0.436,5.067,2.223,6.958c1.465,1.563,2.959,2.78,4.437,3.617c1.397,0.792,2.653,1.514,3.769,2.162
						c1.125,0.657,1.926,1.083,2.446,1.299l26.133,14.953c5.711,3.174,10.212,7.166,13.378,11.867
						c3.601,5.316,5.427,10.921,5.427,16.659c0,3.865-0.872,8.052-2.591,12.444c-1.713,4.375-4.509,8.473-8.307,12.18
						c-3.805,3.713-8.78,6.798-14.788,9.165c-6.016,2.369-12.676,3.57-19.794,3.57c-7.115,0-13.583-1.153-19.23-3.429
						c-10.481-4.157-17.396-11.524-20.548-21.89c-0.811-2.786-1.222-5.424-1.222-7.84c0-6.488,1.654-12.713,4.923-18.557
						c-1.9,4.33-2.862,8.58-2.862,12.676c0,6.517,1.655,12.354,4.922,17.348c3.254,4.978,7.669,8.91,13.124,11.684
						c5.438,2.766,11.078,4.169,16.763,4.169C605.412,570.455,610.287,569.529,614.233,567.702 M580.296,468.566
						c-6.944,5.402-10.465,13.157-10.465,23.049c0,11.064,6.007,20.208,17.853,27.182l22.845,13.454
						c4.413,2.431,7.783,5.32,10.016,8.579c2.208,3.224,3.326,6.402,3.326,9.445c0,3.067-0.848,6.052-2.519,8.869
						c-1.66,2.795-4.338,5.063-7.961,6.743c-3.679,1.703-8.272,2.567-13.65,2.567c-5.367,0-10.701-1.328-15.856-3.951
						c-5.139-2.613-9.297-6.313-12.357-10.996c-3.05-4.663-4.597-10.131-4.597-16.253c0-4.934,1.512-10.14,4.493-15.471l0.42-0.752
						l-2.771-2.152l-0.603,0.863c-5.042,7.231-7.599,15.102-7.599,23.393c0,2.606,0.437,5.431,1.305,8.41
						c3.342,10.989,10.652,18.787,21.721,23.177c5.882,2.37,12.603,3.572,19.974,3.572c7.37,0,14.277-1.248,20.527-3.709
						c6.257-2.465,11.455-5.694,15.452-9.594c4.002-3.908,6.954-8.241,8.772-12.883c1.811-4.626,2.729-9.057,2.729-13.173
						c0-6.145-1.941-12.128-5.77-17.779c-3.342-4.961-8.074-9.165-14.053-12.49l-26.179-14.979l-0.126-0.061
						c-0.287-0.114-0.911-0.415-2.248-1.196c-1.124-0.653-2.386-1.38-3.791-2.176c-1.304-0.737-2.637-1.829-3.967-3.246
						c-1.385-1.466-1.939-3.219-1.689-5.394c0.257-3.245,1.893-5.789,5.001-7.777c3.184-2.032,7.854-3.063,13.882-3.063
						c5.992,0,10.965,1.53,14.78,4.545c3.795,3.003,5.64,6.821,5.64,11.675v1h3.28l3.198-24.819l-11.96,0.005
						c-9.518-0.932-17.464-1.406-23.618-1.406C593.935,461.774,586.051,464.059,580.296,468.566"/>
				</defs>
				<clipPath id="SVGID_62_">
					<use xlink:href="#SVGID_61_"  style="overflow:visible;"/>
				</clipPath>
				
					<linearGradient id="SVGID_63_" gradientUnits="userSpaceOnUse" x1="132.0679" y1="476.0277" x2="133.0679" y2="476.0277" gradientTransform="matrix(524 168 168 -524 -149009.1406 227630.4062)">
					<stop  offset="0" style="stop-color:#B07515"/>
					<stop  offset="0.0948" style="stop-color:#E1BB60"/>
					<stop  offset="0.1398" style="stop-color:#F5D77F"/>
					<stop  offset="0.2581" style="stop-color:#FFFFD7"/>
					<stop  offset="0.3602" style="stop-color:#F5D77F"/>
					<stop  offset="0.4892" style="stop-color:#B07515"/>
					<stop  offset="0.5731" style="stop-color:#E1BB60"/>
					<stop  offset="0.6129" style="stop-color:#F5D77F"/>
					<stop  offset="0.7366" style="stop-color:#FFFFD7"/>
					<stop  offset="0.8387" style="stop-color:#F5D77F"/>
					<stop  offset="1" style="stop-color:#B07515"/>
				</linearGradient>
				<polygon class="st21" points="569.305,435.469 685.227,472.635 642.917,604.599 526.996,567.433 				"/>
			</g>
			<g>
				<defs>
					<path id="SVGID_64_" d="M133.756,465.401v1.401h1.82c2.426,0,4.502,0.839,6.229,2.52c1.727,1.679,2.637,3.734,2.731,6.159
						v77.701c-0.094,2.427-1.004,4.504-2.731,6.23c-1.727,1.728-3.803,2.589-6.229,2.589h-1.82v1.4h50.26v-1.4h-1.82
						c-2.428,0-4.528-0.861-6.3-2.589c-1.773-1.726-2.661-3.803-2.661-6.23v-77.701c0.092-2.425,1.003-4.48,2.731-6.159
						c1.726-1.681,3.802-2.52,6.23-2.52h1.82v-1.401H133.756z M206.417,465.401v1.26h1.399c1.959,0,3.266,0.701,3.92,2.101
						c0.28,0.56,0.42,1.214,0.42,1.96c0,0.748-0.329,1.588-0.98,2.519l-33.46,45.641l30.8,42.7c4.572,6.346,9.006,11.76,13.3,16.239
						c11.665,12.132,23.566,18.201,35.7,18.201c8.586,0,17.5-2.614,26.74-7.84l-0.28-1.54c-9.614-0.749-18.084-3.874-25.41-9.38
						c-7.329-5.509-16.078-15.4-26.25-29.681l-32.06-45.08l23.94-28.979c4.012-4.573,9.146-6.861,15.4-6.861h0.56v-1.26H206.417z"/>
				</defs>
				<clipPath id="SVGID_65_">
					<use xlink:href="#SVGID_64_"  style="overflow:visible;"/>
				</clipPath>
				
					<linearGradient id="SVGID_66_" gradientUnits="userSpaceOnUse" x1="132.005" y1="475.4419" x2="133.005" y2="475.4419" gradientTransform="matrix(150.5 0 0 -150.5 -19733 72084.7188)">
					<stop  offset="0" style="stop-color:#B07515"/>
					<stop  offset="0.0948" style="stop-color:#E1BB60"/>
					<stop  offset="0.1398" style="stop-color:#F5D77F"/>
					<stop  offset="0.2581" style="stop-color:#FFFFD7"/>
					<stop  offset="0.3602" style="stop-color:#F5D77F"/>
					<stop  offset="0.4892" style="stop-color:#B07515"/>
					<stop  offset="0.5731" style="stop-color:#E1BB60"/>
					<stop  offset="0.6129" style="stop-color:#F5D77F"/>
					<stop  offset="0.7366" style="stop-color:#FFFFD7"/>
					<stop  offset="0.8387" style="stop-color:#F5D77F"/>
					<stop  offset="1" style="stop-color:#B07515"/>
				</linearGradient>
				<rect x="133.756" y="465.401" class="st22" width="150.5" height="130.621"/>
			</g>
			<g>
				<defs>
					<path id="SVGID_67_" d="M284.255,465.122c-4.014,0.094-8.798,0.234-14.351,0.419c-5.554,0.189-8.843,0.328-9.868,0.42
						c-7.189,0.28-12.461,1.845-15.821,4.691c-3.36,2.848-5.04,6.418-5.04,10.71c0,4.574,1.96,8.028,5.88,10.36
						c2.051,1.214,4.082,1.82,6.09,1.82c2.006,0,4.036-0.56,6.09-1.681v-0.839h-1.68c-2.708,0-4.948-0.792-6.72-2.38
						c-1.774-1.586-2.66-3.686-2.66-6.3v-0.841c0.56-5.506,4.76-8.399,12.6-8.679l12.18-0.42v80.78
						c-0.094,2.427-1.004,4.504-2.73,6.23c-1.728,1.728-3.804,2.589-6.23,2.589h-1.82v1.4h50.26v-1.4h-1.82
						c-2.428,0-4.528-0.861-6.3-2.589c-1.774-1.726-2.66-3.803-2.66-6.23v-75.74c0.092-2.707,0.467-4.947,1.119-6.72
						c1.401-3.64,4.713-5.879,9.941-6.721l-0.28-1.399C304.555,463.722,295.826,464.562,284.255,465.122"/>
				</defs>
				<clipPath id="SVGID_68_">
					<use xlink:href="#SVGID_67_"  style="overflow:visible;"/>
				</clipPath>
				
					<linearGradient id="SVGID_69_" gradientUnits="userSpaceOnUse" x1="132.0106" y1="474.561" x2="133.0106" y2="474.561" gradientTransform="matrix(71.54 0 0 -71.54 -9204.8662 34463.1133)">
					<stop  offset="0" style="stop-color:#B07515"/>
					<stop  offset="0.0948" style="stop-color:#E1BB60"/>
					<stop  offset="0.1398" style="stop-color:#F5D77F"/>
					<stop  offset="0.2581" style="stop-color:#FFFFD7"/>
					<stop  offset="0.3602" style="stop-color:#F5D77F"/>
					<stop  offset="0.4892" style="stop-color:#B07515"/>
					<stop  offset="0.5731" style="stop-color:#E1BB60"/>
					<stop  offset="0.6129" style="stop-color:#F5D77F"/>
					<stop  offset="0.7366" style="stop-color:#FFFFD7"/>
					<stop  offset="0.8387" style="stop-color:#F5D77F"/>
					<stop  offset="1" style="stop-color:#B07515"/>
				</linearGradient>
				<rect x="239.175" y="462.602" class="st23" width="71.54" height="100.799"/>
			</g>
			<g>
				<defs>
					<path id="SVGID_70_" d="M282.152,451.402l0.701,1.259c2.52-0.931,5.133-1.399,7.839-1.399c10.828,0,23.429,7.653,37.8,22.96
						v79.239c0,2.429-0.839,4.46-2.52,6.091c-1.679,1.634-3.688,2.449-6.02,2.449h-2.659v1.4h51.24v-1.4h-2.661
						c-2.333,0-4.34-0.815-6.019-2.449c-1.68-1.631-2.52-3.662-2.52-6.091v-49.28l61.46,63.56
						c6.16,6.346,12.461,11.247,18.899,14.701c6.253,3.451,12.274,5.179,18.061,5.179c6.626,0,12.785-1.773,18.479-5.319l-0.559-1.4
						c-2.521,0.746-5.135,1.12-7.84,1.12c-2.709,0-5.275-0.28-7.7-0.84c-2.148-0.375-4.528-1.284-7.141-2.731
						c-2.613-1.448-4.668-2.614-6.159-3.5c-1.494-0.887-3.453-2.427-5.881-4.619c-2.427-2.194-4.038-3.664-4.83-4.411
						c-0.794-0.748-3.383-3.451-7.769-8.119l-2.52-2.66v-79.941c0.092-2.331,0.979-4.315,2.66-5.949
						c1.68-1.633,3.686-2.45,6.02-2.45h2.52v-1.401h-51.24v1.401h2.66c2.331,0,4.34,0.817,6.02,2.45
						c1.68,1.634,2.566,3.664,2.66,6.09v50.119l-57.54-59.5c-4.481-4.571-9.614-8.771-15.401-12.6
						c-3.079-1.959-6.697-3.71-10.849-5.249c-4.153-1.54-8.236-2.31-12.25-2.31C293.026,445.802,287.381,447.671,282.152,451.402"/>
				</defs>
				<clipPath id="SVGID_71_">
					<use xlink:href="#SVGID_70_"  style="overflow:visible;"/>
				</clipPath>
				
					<linearGradient id="SVGID_72_" gradientUnits="userSpaceOnUse" x1="132.0039" y1="475.6147" x2="133.0039" y2="475.6147" gradientTransform="matrix(192.0801 0 0 -192.0801 -25073.1738 91872.8125)">
					<stop  offset="0" style="stop-color:#B07515"/>
					<stop  offset="0.0948" style="stop-color:#E1BB60"/>
					<stop  offset="0.1398" style="stop-color:#F5D77F"/>
					<stop  offset="0.2581" style="stop-color:#FFFFD7"/>
					<stop  offset="0.3602" style="stop-color:#F5D77F"/>
					<stop  offset="0.4892" style="stop-color:#B07515"/>
					<stop  offset="0.5731" style="stop-color:#E1BB60"/>
					<stop  offset="0.6129" style="stop-color:#F5D77F"/>
					<stop  offset="0.7366" style="stop-color:#FFFFD7"/>
					<stop  offset="0.8387" style="stop-color:#F5D77F"/>
					<stop  offset="1" style="stop-color:#B07515"/>
				</linearGradient>
				<rect x="282.152" y="445.802" class="st24" width="192.08" height="141.819"/>
			</g>
			<g>
				<defs>
					<path id="SVGID_73_" d="M455.893,477.371c-11.201,9.288-16.8,21.584-16.8,36.891c0,15.308,5.481,27.649,16.449,37.029
						c10.967,9.38,25.271,14.071,42.91,14.071c8.96,0,17.5-1.26,25.62-3.78c3.36,8.211,8.446,15.072,15.26,20.579
						c6.812,5.506,14.887,9.006,24.221,10.5c2.239,0.28,4.479,0.421,6.719,0.421c7.466,0,15.401-1.82,23.8-5.461l-0.28-1.399
						c-2.987,0.651-6.019,0.979-9.1,0.979c-3.08,0-6.16-0.467-9.24-1.399c-10.64-3.36-18.387-10.92-23.24-22.68
						c-2.148-5.32-3.22-10.686-3.22-16.1v-22.68c-0.094-2.053,0.466-3.64,1.681-4.761c1.21-1.12,2.939-1.679,5.179-1.679h2.24v-1.4
						h-47.04v1.4h2.1c2.332,0,4.13,0.559,5.39,1.679c1.261,1.121,1.841,2.708,1.749,4.761v19.04c0,4.479-1.703,8.098-5.109,10.849
						c-3.408,2.754-8.074,4.131-13.999,4.131c-5.93,0-11.319-1.796-16.17-5.39c-4.854-3.592-8.589-8.656-11.2-15.191
						c-2.615-6.532-3.921-14.045-3.921-22.539c0-13.44,3.032-24.266,9.1-32.48c6.067-8.212,13.767-12.321,23.101-12.321
						c9.331,0,17.289,2.17,23.869,6.51c6.579,4.34,10.99,10.899,13.23,19.67h1.259l1.401-26.88c-2.799-1.119-6.441-2.145-10.92-3.08
						c-9.988-2.145-20.253-3.219-30.8-3.219C481.838,463.442,467.093,468.085,455.893,477.371"/>
				</defs>
				<clipPath id="SVGID_74_">
					<use xlink:href="#SVGID_73_"  style="overflow:visible;"/>
				</clipPath>
				
					<linearGradient id="SVGID_75_" gradientUnits="userSpaceOnUse" x1="132.0049" y1="475.465" x2="133.0049" y2="475.465" gradientTransform="matrix(154.9795 0 0 -154.9795 -20018.957 74215.5781)">
					<stop  offset="0" style="stop-color:#B07515"/>
					<stop  offset="0.0948" style="stop-color:#E1BB60"/>
					<stop  offset="0.1398" style="stop-color:#F5D77F"/>
					<stop  offset="0.2581" style="stop-color:#FFFFD7"/>
					<stop  offset="0.3602" style="stop-color:#F5D77F"/>
					<stop  offset="0.4892" style="stop-color:#B07515"/>
					<stop  offset="0.5731" style="stop-color:#E1BB60"/>
					<stop  offset="0.6129" style="stop-color:#F5D77F"/>
					<stop  offset="0.7366" style="stop-color:#FFFFD7"/>
					<stop  offset="0.8387" style="stop-color:#F5D77F"/>
					<stop  offset="1" style="stop-color:#B07515"/>
				</linearGradient>
				<rect x="439.093" y="463.442" class="st25" width="154.979" height="129.64"/>
			</g>
			<g>
				<defs>
					<path id="SVGID_76_" d="M580.911,470.022c-6.72,5.227-10.08,12.649-10.08,22.26c0,10.734,5.786,19.507,17.36,26.32
						l22.82,13.439c4.572,2.521,8.026,5.485,10.36,8.891c2.332,3.408,3.5,6.744,3.5,10.01c0,3.269-0.888,6.393-2.659,9.38
						c-1.775,2.988-4.575,5.366-8.401,7.139c-3.828,1.772-8.518,2.661-14.07,2.661c-5.554,0-10.989-1.354-16.31-4.06
						c-5.32-2.706-9.568-6.486-12.74-11.34c-3.174-4.853-4.76-10.452-4.76-16.8c0-5.132,1.54-10.452,4.62-15.961l-1.26-0.979
						c-4.947,7.094-7.42,14.699-7.42,22.82c0,2.519,0.42,5.227,1.26,8.119c3.267,10.734,10.312,18.247,21.141,22.541
						c5.786,2.332,12.32,3.499,19.599,3.499c7.28,0,13.999-1.213,20.16-3.64c6.16-2.427,11.2-5.553,15.12-9.38
						c3.92-3.826,6.766-8.001,8.54-12.529c1.772-4.526,2.66-8.796,2.66-12.81c0-5.972-1.868-11.712-5.599-17.22
						c-3.269-4.853-7.841-8.912-13.721-12.18l-26.18-14.98c-0.467-0.186-1.259-0.607-2.38-1.261c-1.12-0.652-2.379-1.376-3.78-2.17
						c-1.4-0.792-2.8-1.935-4.2-3.43c-1.588-1.679-2.239-3.731-1.96-6.159c0.281-3.546,2.1-6.392,5.46-8.54
						c3.36-2.146,8.166-3.221,14.42-3.221c6.251,0,11.387,1.589,15.4,4.76c4.012,3.174,6.02,7.328,6.02,12.46h1.4l2.941-22.818
						h-10.92c-9.521-0.934-17.361-1.401-23.521-1.401C594.117,463.442,586.512,465.636,580.911,470.022"/>
				</defs>
				<clipPath id="SVGID_77_">
					<use xlink:href="#SVGID_76_"  style="overflow:visible;"/>
				</clipPath>
				
					<linearGradient id="SVGID_78_" gradientUnits="userSpaceOnUse" x1="132.0085" y1="474.8825" x2="133.0085" y2="474.8825" gradientTransform="matrix(88.4805 0 0 -88.4805 -11118.3066 42538.5234)">
					<stop  offset="0" style="stop-color:#B07515"/>
					<stop  offset="0.0948" style="stop-color:#E1BB60"/>
					<stop  offset="0.1398" style="stop-color:#F5D77F"/>
					<stop  offset="0.2581" style="stop-color:#FFFFD7"/>
					<stop  offset="0.3602" style="stop-color:#F5D77F"/>
					<stop  offset="0.4892" style="stop-color:#B07515"/>
					<stop  offset="0.5731" style="stop-color:#E1BB60"/>
					<stop  offset="0.6129" style="stop-color:#F5D77F"/>
					<stop  offset="0.7366" style="stop-color:#FFFFD7"/>
					<stop  offset="0.8387" style="stop-color:#F5D77F"/>
					<stop  offset="1" style="stop-color:#B07515"/>
				</linearGradient>
				<rect x="561.871" y="463.442" class="st26" width="88.48" height="114.519"/>
			</g>
		</g>
	</g>
</g>
</svg>
